<svg width="306" height="81" viewBox="0 0 306 81" fill="none" xmlns="http://www.w3.org/2000/svg">
<path d="M288.072 0C292.719 9.48694e-05 297.032 1.64983 300.085 4.94824H300.094C300.694 5.60087 301.244 6.30532 301.736 7.07812C303.42 9.27686 304.553 11.8758 305.025 14.6279H305.079C305.538 17.4796 305.034 20.4171 303.857 23.0283C303.607 23.5007 303.324 23.9737 303.023 24.4375C300.563 28.2599 296.533 31.8498 291.578 32.0391C288.567 31.8243 285.788 30.9657 283.702 28.6035C283.035 27.3666 282.001 25.786 282.185 24.4375H284.045C284.212 25.0903 284.254 25.795 284.629 26.2588C285.789 28.6208 288.341 30.1153 290.886 30.3301C294.831 29.9949 298.502 27.6072 300.604 24.4463C301.205 23.553 301.672 22.5735 302.006 21.5342C302.506 19.3181 302.756 16.9128 302.331 14.6279H302.401C301.813 11.6454 300.231 8.88154 297.106 7.07812C295.021 5.57512 292.01 5.36854 289.457 6.21875C285.142 8.31009 286.063 11.2146 286.063 11.7021C286.063 11.7301 286.02 11.7622 285.94 11.8027C286.011 12.3059 285.833 12.909 285.401 13.2314C281.31 14.5283 278.424 17.9421 276.19 21.8877H276.182C274.618 24.6364 273.368 27.6412 272.242 30.3789L270.804 34.5459L266.033 48.3789L266.051 48.3906C266.542 52.2694 270.518 53.9213 272.501 56.1377C271.751 59.1746 268.034 60.8379 266.792 63.8857C264.8 68.5851 262.492 74.7995 261.5 79.499C261 80.3303 260.491 80.6073 260 79.499C257.579 64.7797 252.855 48.9881 248.566 34.5459H261.093L263.567 43.1143C264.059 43.6681 264.809 43.9451 265.05 43.1143C266.077 40.421 267.391 37.5277 268.463 34.5352C269.946 30.4009 270.982 26.0995 270.276 21.8877C270.026 20.3584 269.535 18.8619 268.767 17.377C267.284 15.4374 265.791 13.497 263.808 12.3887C263.808 11.6347 264.268 11.1373 264.795 10.8965C264.827 10.8413 264.864 10.7855 264.905 10.7285C267.917 10.5138 270.469 9.65462 273.014 8.36621C274.115 7.15521 275.291 6.01326 276.534 4.94824C279.838 2.13938 283.709 2.86805e-05 288.072 0ZM12.1035 1.44922C18.0176 -0.970467 26.2121 0.110955 31.3154 3.44336L37.6895 7.39551L45.3613 9.51074C45.6006 11.3574 42.5224 11.9533 41.7412 13.5947L41.7148 17.1689C42.4138 18.0564 43.0408 19.1007 43.5303 20.1367L43.5967 20.1523C44.5834 22.544 44.5927 23.143 45.2852 25.2021C46.3638 27.2217 48.0074 32.7698 48.5117 34.6768L51.5908 43.4863C52.2133 44.0614 53.1683 44.353 53.4824 43.5C54.8131 40.7364 56.5104 37.7696 57.9004 34.6982C59.8231 30.4552 61.1778 26.0358 60.3096 21.6924L67.8408 21.7471C65.8261 24.5628 64.2083 27.6447 62.752 30.4531L60.8857 34.7305L54.6973 48.9297L54.7188 48.9424C55.3168 52.9411 60.3766 54.6795 62.8896 56.9805C61.9092 60.1002 57.1559 61.7777 55.5488 64.9043C52.9724 69.7246 50.4097 74.272 49.1094 79.1016C48.4649 79.9527 47.1955 80.5137 46.5771 79.3682C43.5997 64.1891 37.8836 49.4346 32.5225 34.5234L32.623 34.5244C32.5388 34.3783 32.4472 34.2119 32.3525 34.0264C31.0137 31.4017 28.7052 25.0529 27.374 21.2881C25.6027 16.9076 24.2796 12.7334 23.3096 8.73145C22.2936 6.67272 19.4876 5.62196 16.9238 4.98535C13.8509 4.75698 10.5137 4.73293 8.19434 6.56934C3.05514 9.40692 1.98836 14.3431 3.23926 18.875C4.53411 20.4534 5.98249 22.2484 6.82617 23.4746C9.51844 25.9578 12.8995 27.5127 16.373 27.5381C18.4989 27.2474 20.8828 26.0986 21.9688 23.458L22.0352 23.3525L24.5801 23.3711C23.9324 26.2037 21.0833 28.1853 18.7432 29.6045C12.9859 31.3047 8.03539 27.5828 3.86621 23.2197L3.93555 23.2207C2.51082 22.2115 0.554179 18.1574 0.476562 14.5303C0.518653 8.7719 5.93601 3.87567 12.1035 1.44922ZM175.958 10C177.611 11.8952 174.297 12.9787 174.297 15.1338L174.834 17.9668C175.099 19.3935 175.233 20.4428 175.281 21.1963C176.741 25.0299 176.96 25.9663 177.391 26.6738C178.42 28.9049 178.753 29.7495 178.956 30.4785H178.977C179.815 33.6017 180.646 36.7248 181.517 39.8398C182.398 42.9959 183.351 46.1276 184.386 49.2344H184.394C184.943 50.8864 185.542 52.5225 186.164 54.1416C186.843 52.5142 187.49 50.8864 188.104 49.2344H188.315C189.423 46.2052 190.458 43.146 191.417 40.0635H193.666C192.655 43.2359 191.686 46.4253 190.781 49.6396L190.772 49.6484H190.575C189.73 52.6205 188.936 55.6222 188.226 58.6543C187.991 60.2979 189.826 61.1199 191.2 61.7363C192.122 62.3445 193.497 62.1392 194.184 63.3721C193.262 65.8296 190.053 65.8297 188.452 68.0898C185.009 71.583 182.033 75.0761 180.659 79.3828L179.746 80C178.372 78.7755 179.059 76.7206 178.146 75.2822C175.753 66.6273 173.408 57.9306 170.991 49.251C170.118 46.1277 169.237 42.9957 168.34 39.8643C167.443 36.7329 166.529 33.6016 165.6 30.4785H165.651C164.815 27.5654 163.973 24.6531 163.128 21.748C162.971 21.3365 162.805 20.9136 162.622 20.4805H162.667C161.539 18.6322 158.375 14.1097 155.896 12.1582C155.809 12.3067 155.696 12.4394 155.558 12.543C151.403 13.8598 148.474 17.3268 146.206 21.333H146.196C144.609 24.1238 143.339 27.1736 142.196 29.9531L140.736 34.1855L135.892 48.2305L135.91 48.2412C136.409 52.18 140.445 53.8577 142.459 56.1084C141.697 59.1916 137.924 60.88 136.663 63.9746C134.64 68.7462 132.626 73.2479 131.619 78.0195C131.111 78.8634 130.104 79.426 129.605 78.3008C127.147 63.3557 122.512 48.8493 118.158 34.1855H130.876L133.389 42.8848C133.888 43.4472 134.65 43.7283 134.895 42.8848C135.938 40.1501 137.271 37.2124 138.359 34.1738C139.865 29.9761 140.917 25.6095 140.2 21.333H140.201C139.947 19.78 139.448 18.26 138.668 16.752C137.162 14.7826 135.646 12.8138 133.633 11.6885C133.633 10.5635 134.64 10.0004 135.393 10H175.958ZM100.779 10C102.497 11.9693 99.0532 13.0947 99.0527 15.334L99.6104 18.2793C99.8522 19.5799 99.987 20.5788 100.051 21.333H100.07C100.56 23.4825 101.45 25.5982 102.13 27.7139C103.044 29.7586 103.597 31.9718 104.158 34.1738H104.17C104.85 36.8296 105.54 39.4631 106.919 41.7588L108.18 40.915L110.411 34.1963H112.697C111.074 38.7294 109.813 43.3296 108.435 47.9414C109.949 51.3047 112.218 54.3974 115.491 55.5225C117.251 58.8985 112.216 60.0127 111.454 63.1074C107.926 68.1603 106.665 74.3502 104.397 79.9658C102.892 80.2581 103.39 78.5706 102.892 77.7266C99.3095 63.0779 95.2556 48.6092 91.1113 34.1855H91.0986C90.001 30.3367 88.8853 26.487 87.7695 22.6494C87.6539 22.3466 87.5322 22.0387 87.4043 21.7246C87.3964 21.7481 87.3458 21.7075 87.2441 21.5908C87.2884 21.614 87.3332 21.6363 87.377 21.6592C87.3502 21.5939 87.3243 21.5277 87.2969 21.4619C86.6259 20.1919 82.9975 14.7804 80.1348 12.4082C80.0904 12.4404 80.0467 12.4733 80 12.501C76.8589 10.9551 71.0305 17.2435 67.8535 21.6924L60.3086 21.6377C60.001 20.0604 59.3858 18.514 58.417 16.9775C56.5401 14.9666 54.6511 12.9557 52.1299 11.7959C52.1383 10.6548 53.4078 10.0929 54.3535 10.0996H79.8965C80.0519 10.0368 80.2109 10.0001 80.3604 10H100.779ZM210.71 10.4199C210.727 10.4474 210.741 10.4754 210.756 10.502L231.451 10.7266C233.142 12.6659 229.75 13.7752 229.75 15.9805L230.3 18.8799C230.538 20.1604 230.671 21.145 230.733 21.8877H230.752C231.234 24.0046 232.11 26.0892 232.78 28.1729C233.681 30.1865 234.225 32.3665 234.778 34.5352H234.791C235.461 37.1507 236.139 39.7449 237.497 42.0059L238.739 41.1748L240.938 34.5576H243.188C241.59 39.022 240.347 43.5528 238.99 48.0947C240.482 51.4073 242.717 54.4534 245.94 55.5615C247.673 58.8864 242.716 59.9845 241.965 63.0322C238.49 68.0088 237.247 74.1049 235.014 79.6357C233.531 79.9235 234.022 78.2621 233.531 77.4307C230.003 63.0031 226.01 48.7519 221.929 34.5459H221.917C220.836 30.7554 219.737 26.964 218.638 23.1846C218.524 22.8863 218.403 22.5828 218.277 22.2734C218.27 22.2981 218.221 22.2578 218.12 22.1416C218.164 22.1644 218.208 22.1865 218.251 22.209C218.225 22.1453 218.199 22.0807 218.172 22.0166C217.432 20.6148 213.024 14.0749 210.128 12.3896C210.084 12.3127 210.046 12.2332 210.012 12.1533C209.262 12.5193 208.284 12.835 207.938 13.5674C203.782 16.7147 201.238 20.4831 198.932 24.2598C198.223 26.3243 197.521 28.3978 196.82 30.4707C195.744 33.6514 194.694 36.841 193.675 40.0469H191.425C192.411 36.8661 193.365 33.6767 194.286 30.4707C194.914 28.3306 195.525 26.19 196.152 24.0498C196.617 19.0225 195.231 14.1968 190.609 11.4775V11.4688C189.688 11.4688 188.303 11.678 187.839 10.8389C188.076 9.79045 189.917 10.2097 191.074 10L210.71 10.4199ZM258.841 11.0146C260.573 12.9541 257.099 14.0632 257.099 16.2686L256.607 19.0391L257.427 21.8877H257.43L261.08 34.5352H248.566C248.021 32.6954 247.476 30.844 246.94 28.9932C246.69 28.716 246.199 28.1624 245.699 28.4385C244.752 30.4445 243.939 32.4844 243.197 34.5459H240.946L244.707 23.1846C244.654 22.7563 244.574 22.3277 244.477 21.8994H244.466C243.51 17.9316 240.356 14.1732 236.997 12.6768C236.507 11.8458 237.498 11.0149 238.239 11.0146H258.841ZM261.083 34.5459L261.08 34.5352H261.092L261.083 34.5459ZM128.59 10.292C130.35 12.2614 126.821 13.3874 126.821 15.627L126.322 18.4404L127.153 21.333H127.156L130.863 34.1738H118.158C117.605 32.3057 117.051 30.4263 116.507 28.5469C116.253 28.2654 115.754 27.7031 115.246 27.9844C114.285 30.0212 113.459 32.0924 112.706 34.1855H110.42L114.239 22.6494C114.185 22.2141 114.104 21.779 114.005 21.3438H113.994C113.024 17.3149 109.822 13.4998 106.411 11.9805C105.913 11.1366 106.919 10.2923 107.672 10.292H128.59ZM130.866 34.1855L130.863 34.1738H130.876L130.866 34.1855Z" fill="black"/>
</svg>
