<svg width="314" height="95" viewBox="0 0 314 95" fill="none" xmlns="http://www.w3.org/2000/svg">
<path d="M97.7812 25.0002C99.4976 26.9692 96.0541 28.0952 96.0537 30.3342L96.6123 33.2795C96.8541 34.5799 96.989 35.5792 97.0527 36.3333H97.0713C97.5611 38.4825 98.4506 40.5986 99.1309 42.7141C100.045 44.7587 100.599 46.9722 101.16 49.1741H101.172C101.852 51.8297 102.541 54.4635 103.92 56.759L105.182 55.9153L107.413 49.1965H109.698C108.075 53.7295 106.814 58.33 105.437 62.9417C106.951 66.3048 109.219 69.3977 112.492 70.5227C114.251 73.8985 109.218 75.0131 108.456 78.1077C104.928 83.1607 103.666 89.3504 101.398 94.9661C99.8931 95.2585 100.391 93.571 99.8926 92.7268C96.3105 78.0783 92.2565 63.6093 88.1123 49.1858H88.1006C87.003 45.3371 85.8872 41.4871 84.7715 37.6497C84.6558 37.3466 84.5333 37.0382 84.4053 36.7239C84.3981 36.7489 84.3477 36.7087 84.2451 36.5911C84.2896 36.6144 84.3349 36.6364 84.3789 36.6594C84.3512 36.5919 84.3234 36.5234 84.2949 36.4553C83.532 35.0168 79.0668 28.3969 76.1309 26.6887C75.6438 25.8447 76.6274 25.0002 77.3623 25.0002H97.7812ZM285.694 18.2209C290.279 14.9768 297.623 13.9582 302.909 16.3635C308.422 18.7765 313.252 23.6088 313.265 29.26C313.161 33.6008 310.552 38.552 309.38 37.9514C309.324 37.9918 309.276 38.0409 309.22 38.0813L310.192 38.0793C306.44 42.3397 301.99 45.9661 296.841 44.2678C294.751 42.863 292.209 40.9043 291.641 38.1213L293.92 38.1165L293.979 38.219C294.94 40.8162 297.07 41.9559 298.973 42.2522C301.905 42.2455 304.77 40.9052 307.118 38.7219C307.709 37.6064 309.343 35.3982 310.771 33.509C311.911 29.068 310.977 24.2196 306.387 21.4084C304.317 19.5942 301.328 19.6005 298.575 19.8088C296.277 20.4204 293.761 21.4374 292.842 23.4524C292.218 26.8878 290.412 31.481 288.398 36.2229H288.544C288.331 36.6713 288.138 37.1095 287.955 37.5354C286.709 41.3576 285.461 45.1913 284.235 49.0247H284.222C279.591 63.3914 275.064 77.8036 271.066 92.3928C270.507 93.2343 271.072 94.9126 269.377 94.6252C266.813 89.0418 265.38 82.8837 261.398 77.8635C260.533 74.7858 254.869 73.689 256.841 70.3245C260.521 69.1962 263.065 66.1124 264.762 62.761C263.201 58.1748 261.772 53.5993 259.936 49.092L262.507 49.0862L265.033 55.7668L266.454 56.6038C268 54.3154 268.769 51.692 269.528 49.0471H269.542C270.169 46.854 270.786 44.65 271.811 42.6125C272.441 40.8663 273.23 39.1181 273.793 37.3528C274.077 35.6778 275.075 33.356 276.322 31.6379L276.313 28.1311C275.621 26.5157 272.866 25.9143 273.089 24.1028L279.969 22.0667L285.694 18.2209ZM152.56 25.2932C153.312 25.5751 153.312 26.9805 152.56 27.5432C148.405 28.8599 145.475 32.3268 143.207 36.3333H143.198C141.611 39.1241 140.34 42.1737 139.197 44.9534L137.737 49.1858L132.894 63.2307L132.911 63.2415C133.41 67.18 137.447 68.8579 139.461 71.1086C138.699 74.1918 134.925 75.8802 133.664 78.9749C131.641 83.7464 129.628 88.2482 128.621 93.0198C128.113 93.8636 127.106 94.4257 126.607 93.301C124.149 78.356 119.513 63.8495 115.159 49.1858H127.877L130.39 57.885C130.888 58.4472 131.65 58.7281 131.896 57.885C132.939 55.1504 134.272 52.2125 135.36 49.1741C136.819 45.1077 137.853 40.8825 137.265 36.7346L137.202 36.3333C136.948 34.7804 136.449 33.2601 135.669 31.7522C134.163 29.7831 132.648 27.8141 130.635 26.6887C130.635 25.5633 131.642 25.0002 132.395 25.0002H152.56V25.2932ZM234.345 25.0667C235.192 25.0647 236.326 25.6234 236.329 26.7434C234.066 27.8687 232.366 29.8323 230.677 31.7961C229.803 33.2989 229.243 34.8124 228.961 36.3586C228.164 40.6167 229.359 44.961 231.062 49.135C232.294 52.1562 233.801 55.0763 234.98 57.7952C235.258 58.6345 236.115 58.3524 236.675 57.7913L239.482 49.1262L239.492 49.1252L239.482 49.1155H239.497L239.493 49.1252L253.791 49.094C248.925 63.7002 243.743 78.1511 241.011 93.0325C240.452 94.1531 239.318 93.5957 238.745 92.7571C237.601 88.0105 235.325 83.5343 233.038 78.7903C231.612 75.714 227.363 74.0433 226.499 70.9768C228.76 68.7315 233.298 67.0515 233.851 63.1301L233.871 63.1184L228.389 49.1516L226.735 44.9436C225.443 42.1803 224.008 39.1477 222.216 36.3743H222.206C219.646 32.3927 216.34 28.9495 211.663 27.6497C210.815 27.0913 210.812 25.6914 211.658 25.4094L211.669 25.3987L234.345 25.0667ZM12.1035 1.44946C18.0176 -0.970277 26.2121 0.111145 31.3154 3.4436L37.6895 7.39575L45.3613 9.51099C45.6003 11.3575 42.5222 11.9535 41.7412 13.595L41.7148 17.1692C42.4137 18.0566 43.0408 19.101 43.5303 20.137L43.5967 20.1516C44.5836 22.5436 44.5926 23.143 45.2852 25.2024C46.3638 27.2221 48.0074 32.7701 48.5117 34.677L51.5908 43.4866C52.2132 44.0615 53.1682 44.3528 53.4824 43.5002C54.813 40.7367 56.5105 37.7697 57.9004 34.6985C59.8231 30.4553 61.1779 26.0351 60.3096 21.6917L67.8408 21.7473C65.8262 24.563 64.2083 27.6451 62.752 30.4534L60.8857 34.7307L54.6973 48.9299L54.7188 48.9417C55.3167 52.9405 60.3766 54.6797 62.8896 56.9807C61.9089 60.1003 57.1557 61.7779 55.5488 64.9045C52.9724 69.7248 50.4097 74.2722 49.1094 79.1018C48.4649 79.9528 47.1955 80.5136 46.5771 79.3684C43.5997 64.1894 37.8836 49.4348 32.5225 34.5237L32.623 34.5247C32.5388 34.3787 32.4471 34.212 32.3525 34.0266C31.0138 31.4021 28.7052 25.0532 27.374 21.2883C25.6027 16.9079 24.2796 12.7336 23.3096 8.73169C22.2936 6.6729 19.4876 5.62222 16.9238 4.9856C13.8509 4.75722 10.5137 4.73315 8.19434 6.56958C3.05536 9.40713 1.98847 14.3425 3.23926 18.8743C4.53382 20.4523 5.98138 22.2476 6.8252 23.4739C9.51761 25.9576 12.8991 27.5129 16.373 27.5383C18.4988 27.2476 20.8828 26.0987 21.9688 23.4583L22.0352 23.3528L24.5801 23.3713C23.9323 26.2038 21.0832 28.1855 18.7432 29.6047C12.986 31.3048 8.03533 27.5829 3.86621 23.22L3.93555 23.2209C2.5108 22.2118 0.554133 18.1567 0.476562 14.5295C0.51892 8.77138 5.9362 3.87587 12.1035 1.44946ZM210.512 10.0002C211.219 10.0002 210.98 10.8122 210.512 11.6243C207.964 13.1067 204.219 18.4339 202.97 20.4807H203.015C202.831 20.9137 202.666 21.3369 202.509 21.7483C201.664 24.6532 200.821 27.5658 199.985 30.4788H200.037C199.108 33.6017 198.194 36.7333 197.297 39.8645C196.4 42.9958 195.518 46.1281 194.646 49.2512C192.229 57.9307 189.884 66.6277 187.491 75.2825C186.579 76.7208 187.265 78.7758 185.891 80.0002L184.978 79.3831C183.603 75.0763 180.628 71.5832 177.185 68.0901C175.584 65.8299 172.375 65.8296 171.453 63.3723C172.14 62.1396 173.515 62.3445 174.437 61.7366C175.811 61.1202 177.645 60.2979 177.411 58.6545C176.7 55.6226 175.906 52.6206 175.062 49.6487H174.864L174.855 49.6399C173.951 46.4256 172.981 43.236 171.971 40.0637H174.22C175.179 43.1462 176.213 46.2055 177.321 49.2346H177.532C178.147 50.8866 178.794 52.5145 179.473 54.1418C180.095 52.5228 180.694 50.8865 181.243 49.2346H181.251C182.286 46.128 183.239 42.996 184.12 39.8401C184.991 36.7252 185.822 33.6018 186.66 30.4788H186.681C186.884 29.7498 187.217 28.9048 188.246 26.6741C188.677 25.9666 188.896 25.0298 190.355 21.1965C190.404 20.4431 190.538 19.3935 190.803 17.967L191.34 15.134C191.34 12.979 188.026 11.8952 189.679 10.0002H210.512ZM125.591 25.2922C127.35 27.2614 123.822 28.3878 123.822 30.6272L123.323 33.4407L124.155 36.3333H124.158L127.865 49.1741H115.159C114.606 47.3061 114.053 45.4263 113.509 43.5471C113.255 43.2658 112.756 42.7038 112.248 42.9846C111.287 45.0215 110.461 47.0926 109.708 49.1858H107.422L111.24 37.6497C111.186 37.2146 111.105 36.7791 111.007 36.344H110.996C110.026 32.3152 106.823 28.5002 103.412 26.9807C102.913 26.1368 103.92 25.2926 104.673 25.2922H125.591ZM127.868 49.1858L127.865 49.1741H127.877L127.868 49.1858ZM265.535 25.2874C266.382 25.2855 267.517 26.1229 266.958 26.9641C263.124 28.485 259.529 32.2906 258.446 36.303H258.434C258.324 36.7361 258.234 37.1697 258.174 37.6028L262.497 49.0745L259.925 49.0803C259.073 46.999 258.14 44.9391 257.054 42.9143C256.482 42.6359 255.921 43.1981 255.636 43.4788C255.028 45.3505 254.409 47.2227 253.791 49.0833L239.497 49.1155L243.638 36.3254H243.642L244.57 33.4446L244.003 30.6458C243.997 28.417 240.026 27.3047 242.001 25.3401L265.535 25.2874ZM174.562 10.0002C175.72 10.2099 177.561 9.79068 177.798 10.8391C177.333 11.6777 175.948 11.4691 175.027 11.469V11.4778C170.406 14.1971 169.02 19.0228 169.484 24.05C170.112 26.1901 170.723 28.3309 171.351 30.4709C172.272 33.6768 173.226 36.8664 174.212 40.0471H171.962C170.943 36.8413 169.892 33.6516 168.816 30.4709C168.115 28.3981 167.414 26.3245 166.705 24.26C164.398 20.4833 161.855 16.7149 157.698 13.5676C157.005 12.099 153.77 12.3079 154.927 10.4202L174.562 10.0002ZM80.5 10.0999C81.4434 10.3923 80.9499 11.9375 80 12.5012C76.8589 10.9553 71.0305 17.2437 67.8535 21.6926L60.3086 21.637C60.001 20.0599 59.3856 18.5141 58.417 16.9778C56.5401 14.9668 54.6511 12.956 52.1299 11.7961C52.1382 10.655 53.4077 10.0931 54.3535 10.0999H80.5Z" fill="black"/>
</svg>
