<svg width="325" height="81" viewBox="0 0 325 81" fill="none" xmlns="http://www.w3.org/2000/svg">
<path d="M12.1035 1.44922C18.0175 -0.970514 26.212 0.110119 31.3154 3.44238L37.6895 7.39355L45.3613 9.50977C45.6008 11.3566 42.5222 11.9531 41.7412 13.5947L41.7148 17.1689C42.4133 18.0559 43.04 19.0994 43.5293 20.1348L43.5967 20.1504C44.5835 22.5423 44.5928 23.1423 45.2852 25.2012C46.3636 27.2206 48.0072 32.7672 48.5117 34.6748L51.5908 43.4844C52.2134 44.0595 53.1684 44.3515 53.4824 43.498C54.8131 40.7345 56.5105 37.7675 57.9004 34.6963C59.823 30.4532 61.178 26.0338 60.3096 21.6904L67.8408 21.7451C65.8261 24.5608 64.2083 27.6428 62.752 30.4512L60.8857 34.7295L54.6973 48.9287L54.7188 48.9404C55.3163 52.9394 60.3763 54.6776 62.8896 56.9785C61.9095 60.0984 57.1561 61.7768 55.5488 64.9033C52.9724 69.7235 50.4097 74.2711 49.1094 79.1006C48.465 79.9518 47.1956 80.5126 46.5771 79.3672C43.5996 64.1882 37.8836 49.4326 32.5225 34.5215L32.623 34.5225C32.5388 34.3764 32.4462 34.2099 32.3516 34.0244C31.0126 31.3991 28.705 25.0504 27.374 21.2861C25.603 16.9064 24.2795 12.7328 23.3096 8.73145C22.2935 6.6729 19.4874 5.62194 16.9238 4.98535C13.8509 4.75698 10.5137 4.732 8.19434 6.56836C3.05507 9.40591 1.98839 14.3421 3.23926 18.874C4.5334 20.4516 5.98029 22.2464 6.82422 23.4727C9.51674 25.9567 12.8988 27.5117 16.373 27.5371C18.4989 27.2464 20.8829 26.0977 21.9688 23.457L22.0352 23.3516L24.5801 23.3701C23.9323 26.2024 21.0832 28.1833 18.7432 29.6025C12.986 31.3028 8.03535 27.5817 3.86621 23.2188H3.93555C2.51078 22.2089 0.553949 18.1552 0.476562 14.5283C0.519087 8.77025 5.93626 3.87558 12.1035 1.44922ZM218.832 10C219.539 10 219.3 10.812 218.832 11.624C216.284 13.1064 212.539 18.4334 211.29 20.4805H211.335C211.152 20.9133 210.986 21.3368 210.829 21.748C209.985 24.6528 209.142 27.5657 208.306 30.4785H208.357C207.428 33.6013 206.514 36.7333 205.617 39.8643C204.72 42.9954 203.839 46.128 202.966 49.251C200.549 57.9303 198.204 66.6276 195.812 75.2822C194.899 76.7205 195.585 78.7756 194.211 80L193.298 79.3828C191.924 75.0762 188.948 71.5828 185.505 68.0898C183.904 65.83 180.695 65.8292 179.773 63.3721C180.46 62.1398 181.835 62.3441 182.757 61.7363C184.131 61.12 185.965 60.2976 185.731 58.6543C185.021 55.6225 184.227 52.6202 183.382 49.6484H183.185L183.176 49.6396C182.271 46.4255 181.302 43.2357 180.291 40.0635H182.54C183.499 43.1458 184.534 46.2054 185.642 49.2344H185.853C186.467 50.8862 187.114 52.5144 187.793 54.1416C188.415 52.5228 189.014 50.8861 189.563 49.2344H189.571C190.606 46.1279 191.559 42.9956 192.44 39.8398C193.311 36.7251 194.142 33.6014 194.98 30.4785H195.001C195.204 29.7497 195.537 28.9041 196.566 26.6738C196.997 25.9664 197.217 25.0289 198.676 21.1963C198.724 20.4429 198.858 19.393 199.123 17.9668L199.66 15.1338C199.66 12.9791 196.347 11.8948 197.999 10H218.832ZM105.78 10C107.498 11.9691 104.055 13.0951 104.054 15.334L104.611 18.2793C104.853 19.5795 104.988 20.579 105.052 21.333H105.071C105.561 23.4822 106.45 25.5985 107.13 27.7139C108.044 29.7584 108.598 31.972 109.159 34.1738H109.171C109.851 36.8294 110.541 39.4632 111.92 41.7588L113.181 40.915L115.412 34.1963H117.698C116.075 38.7291 114.813 43.3299 113.436 47.9414C114.95 51.3046 117.219 54.3974 120.492 55.5225C122.251 58.8981 117.217 60.0131 116.455 63.1074C112.927 68.1602 111.666 74.3504 109.398 79.9658C107.893 80.258 108.391 78.5707 107.893 77.7266C104.311 63.0781 100.256 48.609 96.1113 34.1855H96.0996C95.0021 30.3369 93.8862 26.4868 92.7705 22.6494C92.6549 22.3467 92.5322 22.0386 92.4043 21.7246C92.3956 21.7467 92.345 21.7066 92.2441 21.5908C92.2886 21.6141 92.3339 21.6362 92.3779 21.6592C92.3503 21.5917 92.3224 21.5231 92.2939 21.4551C91.5302 20.0155 87.0654 13.396 84.1299 11.6885C83.6434 10.8447 84.6265 10.0002 85.3613 10H105.78ZM296.694 3.22168C301.279 -0.0223319 308.623 -1.04179 313.909 1.36328C319.421 3.7762 324.251 8.6081 324.265 14.2588C324.161 18.5994 321.552 23.5511 320.38 22.9512C320.324 22.9916 320.275 23.0416 320.219 23.082L321.192 23.0801C317.44 27.3402 312.989 30.9666 307.841 29.2686C305.752 27.8639 303.209 25.9046 302.641 23.1221L304.92 23.1162L304.979 23.2197C305.94 25.8166 308.07 26.9567 309.973 27.2529C312.904 27.2463 315.768 25.907 318.115 23.7256C318.704 22.6112 320.341 20.4008 321.771 18.5098C322.911 14.0687 321.977 9.21936 317.387 6.4082C315.317 4.59406 312.328 4.6012 309.575 4.80957C307.277 5.42113 304.761 6.43742 303.842 8.45215C303.218 11.8875 301.412 16.4817 299.398 21.2236H299.544C299.331 21.6717 299.138 22.1095 298.955 22.5352C297.709 26.3574 296.461 30.192 295.235 34.0254H295.222C290.592 48.392 286.064 62.8045 282.066 77.3936C281.508 78.2352 282.071 79.9132 280.377 79.626C277.813 74.0426 276.38 67.8844 272.398 62.8643C271.533 59.7866 265.869 58.6895 267.841 55.3252C271.521 54.197 274.065 51.1121 275.762 47.7607C274.201 43.1749 272.771 38.5997 270.936 34.0928L273.507 34.0869L276.033 40.7676L277.454 41.6035C279 39.3154 279.769 36.6924 280.528 34.0479H280.542C281.169 31.8549 281.786 29.6506 282.811 27.6133C283.441 25.8676 284.229 24.1192 284.792 22.3545C285.076 20.6795 286.075 18.3561 287.322 16.6377L287.313 13.1309C286.621 11.5161 283.867 10.9144 284.089 9.10352L290.969 7.06738L296.694 3.22168ZM160.559 10.293C161.311 10.5743 161.311 11.9801 160.559 12.543C156.404 13.8598 153.474 17.3269 151.206 21.333H151.197C149.61 24.1236 148.34 27.1738 147.197 29.9531L145.736 34.1855L140.893 48.2305L140.911 48.2412C141.41 52.1797 145.446 53.8578 147.46 56.1084C146.697 59.1913 142.925 60.8803 141.664 63.9746C139.641 68.746 137.627 73.2482 136.62 78.0195C136.112 78.8632 135.105 79.4256 134.606 78.3008C132.148 63.3559 127.513 48.8491 123.159 34.1855H135.876L138.389 42.8848C138.887 43.4472 139.649 43.7277 139.895 42.8848C140.938 40.1503 142.272 37.2121 143.36 34.1738C144.819 30.1076 145.852 25.8821 145.264 21.7344L145.201 21.333C144.947 19.7802 144.449 18.2598 143.669 16.752C142.163 14.7826 140.647 12.8138 138.634 11.6885C138.634 10.5637 139.641 10.0003 140.394 10H160.559V10.293ZM245.345 10.0674C246.192 10.0655 247.326 10.6236 247.329 11.7432C245.066 12.8684 243.366 14.8331 241.677 16.7969C240.803 18.2994 240.243 19.8134 239.961 21.3594C239.165 25.6173 240.359 29.9619 242.062 34.1357C243.294 37.1567 244.801 40.0772 245.98 42.7959C246.258 43.6344 247.115 43.3528 247.675 42.792L250.482 34.127L250.492 34.126L250.482 34.1162H250.497L250.493 34.126L264.791 34.0947C259.925 48.7007 254.743 63.1521 252.011 78.0332C251.452 79.153 250.318 78.5961 249.745 77.7578C248.601 73.0113 246.325 68.5349 244.038 63.791C242.612 60.7147 238.364 59.043 237.499 55.9766C239.76 53.7314 244.298 52.0511 244.851 48.1299L244.871 48.1191L239.389 34.1523L237.735 29.9443C236.443 27.1809 235.008 24.1475 233.216 21.374H233.206C230.646 17.3925 227.34 13.9503 222.663 12.6504C221.815 12.0921 221.812 10.6922 222.658 10.4102L222.669 10.3994L245.345 10.0674ZM182.883 10C184.04 10.2097 185.881 9.79099 186.118 10.8389C185.653 11.6774 184.269 11.4688 183.348 11.4688V11.4775C178.727 14.1968 177.34 19.0228 177.805 24.0498C178.432 26.1897 179.043 28.3308 179.671 30.4707C180.592 33.6764 181.546 36.8663 182.532 40.0469H180.282C179.263 36.8412 178.212 33.6512 177.137 30.4707C176.436 28.398 175.734 26.3241 175.025 24.2598C172.719 20.4832 170.175 16.7146 166.019 13.5674C165.325 12.0992 162.091 12.3074 163.247 10.4199L182.883 10ZM133.591 10.292C135.35 12.2612 131.822 13.3878 131.821 15.627L131.322 18.4404L132.154 21.333H132.157L135.864 34.1738H123.159C122.606 32.3059 122.052 30.426 121.508 28.5469C121.254 28.2655 120.755 27.7034 120.247 27.9844C119.286 30.021 118.46 32.0927 117.707 34.1855H115.421L119.24 22.6494C119.186 22.2144 119.104 21.7788 119.006 21.3438H118.995C118.024 17.3151 114.823 13.4998 111.412 11.9805C110.914 11.1366 111.92 10.2922 112.673 10.292H133.591ZM135.867 34.1855L135.864 34.1738H135.876L135.867 34.1855ZM276.535 10.2871C277.382 10.2853 278.517 11.1237 277.958 11.9648C274.124 13.4858 270.529 17.2915 269.446 21.3037H269.434C269.324 21.7367 269.234 22.1707 269.174 22.6035L273.497 34.0752L270.925 34.0811C270.073 31.9999 269.14 29.9397 268.054 27.915C267.482 27.6367 266.921 28.1988 266.636 28.4795C266.028 30.351 265.409 32.2237 264.791 34.084L250.497 34.1162L254.638 21.3252H254.642L255.57 18.4453L255.003 15.6465C254.997 13.4179 251.026 12.3052 253.001 10.3408L276.535 10.2871ZM79.667 10.0986H80.5C81.4431 10.3912 80.9497 11.9352 80 12.499C76.8589 10.954 71.0304 17.2418 67.8535 21.6904L60.3086 21.6357C60.001 20.0587 59.3856 18.5128 58.417 16.9766C56.5402 14.9657 54.6509 12.9537 52.1299 11.7939C52.1391 10.6536 53.408 10.0909 54.3535 10.0977L79.667 10.0986Z" fill="black"/>
</svg>
