<svg width="206" height="202" viewBox="0 0 206 202" fill="none" xmlns="http://www.w3.org/2000/svg">
<path d="M103 0C159.885 0 206 45.2192 206 101C206 156.781 159.885 202 103 202C46.1147 202 0 156.781 0 101C0 45.2192 46.1147 0 103 0ZM103 1C46.6484 1 1 45.7899 1 101C1 156.21 46.6484 201 103 201C159.352 201 205 156.21 205 101C205 45.7899 159.352 1 103 1ZM105.352 113.293C106.458 114.517 104.808 114.927 104.415 115.813C94.6682 126.572 85.338 137.669 76.0977 148.825L76.1055 148.836C73.635 151.805 71.1735 154.792 68.7227 157.772C68.4723 158.14 68.2177 158.522 67.9648 158.926L67.8906 158.808C65.0909 162.883 62.303 166.714 59.8438 168.99C58.6868 170.773 59.1612 173.334 59.8516 175.51C61.1027 177.846 62.6391 180.268 65.1748 181.008C69.8174 183.274 74.2246 181.529 77.2314 178.316C78.0237 176.186 78.9681 173.724 79.5664 172.671C80.1227 169.645 79.7304 166.635 78.2236 164.258C77.0027 162.87 74.9808 161.733 72.3828 162.295L72.2686 162.301L71.0977 160.452C73.6429 159.477 76.5394 160.526 78.7539 161.493C82.7838 164.785 82.1441 170.257 80.6309 175.491L80.1299 174.702C80.1262 174.769 80.113 174.833 80.1094 174.899C81.1989 175.539 78.5368 180.204 75.0771 182.526C70.4963 185.43 64.0929 184.013 59.2969 180.795C54.6242 177.757 51.6623 171.286 51.9238 165.902L52.084 159.286L50.1846 152.666C51.5357 151.553 53.4424 153.472 55.1064 153.2L57.9512 151.396C58.6992 149.499 60.0656 147.493 61.2754 146.4C62.4123 145.035 63.4195 143.496 64.5068 142.087C65.6277 140.207 67.094 138.57 68.5459 136.932L68.5391 136.922C70.2883 134.943 72.0143 132.966 73.0693 130.535L71.6592 129.816L64.9482 131.218L63.627 129.133C68.2223 128.294 72.6634 127.092 77.1807 125.99C79.0182 122.889 80.2016 119.238 79.2168 115.678C80.9232 112.346 84.7336 116.367 87.6709 115.479C93.7873 116.113 99.5102 114.097 105.352 113.293ZM112.585 111.802C112.638 110.872 113.284 109.849 114.289 110.378C123.822 119.923 135.132 127.83 146.261 136.022L146.187 136.07C146.319 136.135 146.467 136.212 146.626 136.301C148.873 137.552 153.634 141.03 156.427 143.108C159.836 145.418 162.821 147.797 165.467 150.223C167.203 151.22 169.745 150.616 171.911 149.831C174.247 148.503 176.677 146.899 177.464 144.442C179.806 139.89 178.181 135.797 175.072 133.123C173.369 132.61 171.449 132.013 170.242 131.535C167.085 131.044 163.879 131.562 161.351 133.232C159.952 134.476 158.783 136.466 159.28 138.906L159.284 139.016L157.432 140.239C156.524 137.873 157.626 135.053 158.631 132.888C161.974 128.859 167.367 129.149 172.507 130.282L172.457 130.314C173.98 130.354 177.366 132.338 179.185 134.927C181.952 139.117 180.408 145.294 177.121 150.049C174.014 154.675 167.555 157.876 162.239 157.942L155.703 158.178L149.12 160.374C148.049 159.153 149.989 157.226 149.757 155.657L148.039 153.057C147.102 152.754 146.14 152.301 145.282 151.789L145.227 151.812C143.35 150.559 143.051 150.13 141.549 148.976C139.782 148.035 135.878 144.801 134.597 143.674L128.097 138.799C127.366 138.685 126.532 138.938 126.719 139.709C127.098 142.357 127.313 145.331 127.799 148.23C128.469 152.237 129.636 156.095 132.376 158.818C133.365 159.811 134.56 160.631 136.008 161.272C138.344 161.817 140.691 162.356 143.081 161.971C143.629 162.801 142.983 163.825 142.295 164.279L123.73 176.242L123.717 176.241C122.892 176.488 122.207 175.449 122.62 174.579C125.776 171.099 126.765 166.771 126.885 162.445L126.893 162.439C126.983 159.421 126.659 156.403 126.349 153.661L125.62 149.656L123.202 136.366L123.179 136.368C120.802 133.764 116.295 134.963 113.357 134.519C112.551 131.783 115.178 128.257 114.822 125.212C114.345 120.469 113.99 115.931 112.585 111.802ZM60.4512 124.164C59.2641 125.624 58.0686 127.091 56.8672 128.549C56.787 128.924 56.6215 129.666 57.1406 129.985C59.3396 129.82 61.4885 129.515 63.6123 129.131L64.9346 131.215L53.4199 133.633C53.1001 133.905 52.795 134.201 52.501 134.514L52.5078 134.523C49.8189 137.469 48.5929 142.341 49.3389 146.229C48.946 147.114 47.6823 146.628 47.2471 145.941L35.1543 126.865C35.7259 124.254 38.6727 126.894 40.4795 125.749L43.0381 124.766L44.8906 122.528L44.8887 122.525L53.1064 112.577L60.4512 124.164ZM88.043 89.4619C89.0173 89.4938 90.0526 90.1251 89.4336 91.1553C78.7976 101.041 69.7739 112.688 60.4609 124.158L53.1084 112.561L58.6738 105.82C58.8393 105.078 58.6252 104.238 57.8027 104.446C54.9937 104.894 51.8528 105.18 48.7725 105.741C44.5154 106.515 40.3834 107.789 37.3477 110.63C36.2418 111.656 35.3036 112.888 34.5381 114.37C33.8198 116.751 33.1079 119.141 33.3643 121.553C32.4565 122.128 31.4196 121.496 30.9844 120.81L19.5576 102.284L19.5615 102.271C19.3536 101.44 20.4888 100.72 21.3779 101.118C24.842 104.233 29.3328 105.133 33.876 105.152L33.8799 105.161C37.0493 105.181 40.2461 104.78 43.1494 104.4L47.4062 103.567L61.5391 100.802L61.5371 100.78C64.426 98.3108 63.4463 93.7718 64.0977 90.7842C67.0256 89.9024 70.5695 92.4793 73.7949 92.0469C78.8139 91.4512 83.6113 90.984 88.043 89.4619ZM53.1133 112.568L53.1064 112.577L53.0996 112.566L53.1133 112.568ZM155.689 81.7354L155.696 81.7285L155.703 81.7383L155.689 81.7363L155.695 81.7441L150.662 88.4463C150.54 89.1766 150.788 89.994 151.571 89.7754C154.261 89.287 157.279 88.9506 160.225 88.3457C164.295 87.5117 168.22 86.1906 171.008 83.3545C172.024 82.33 172.867 81.1053 173.531 79.6396C174.105 77.2957 174.672 74.9433 174.304 72.5859C175.151 72.0067 176.183 72.6043 176.638 73.2686L188.603 91.208L188.6 91.2217C188.842 92.031 187.783 92.756 186.904 92.3818C183.403 89.3929 179.022 88.5916 174.635 88.6543L174.631 88.6475C171.57 88.6844 168.505 89.1341 165.721 89.5576L161.651 90.4492L148.147 93.4111L148.15 93.4336C145.486 95.9038 146.661 100.331 146.183 103.269C143.4 104.185 139.849 101.725 136.757 102.206C131.942 102.879 127.333 103.421 123.132 104.991C122.189 104.978 121.157 104.379 121.703 103.358C131.473 93.4864 139.599 81.9191 148.013 70.5186L155.689 81.7354ZM86.1562 19.5713C86.9826 19.3295 87.6632 20.3719 87.2451 21.2393C84.0706 24.7029 83.0582 29.0252 82.915 33.3506L82.9062 33.3555C82.7996 36.3733 83.1096 39.3935 83.4053 42.1367L84.1123 46.1455L86.459 59.4482L86.4824 59.4463C88.8449 62.0637 93.3583 60.8873 96.2939 61.3477C97.086 64.0876 94.4408 67.5993 94.7803 70.6465C95.232 75.392 95.5616 79.9333 96.9453 84.0703C96.8872 84.9995 96.235 86.0196 95.2334 85.4854C85.7512 75.8896 74.4838 67.9217 63.3984 59.6699L63.4736 59.6211C63.3416 59.5554 63.1939 59.4801 63.0352 59.3906C60.7952 58.1278 56.0513 54.6229 53.2695 52.5293C49.873 50.2013 46.9013 47.8073 44.2686 45.3682C42.5378 44.3619 39.9923 44.9513 37.8223 45.7246C35.4789 47.0402 33.0415 48.6311 32.2412 51.084C29.8743 55.6241 31.4791 59.7256 34.5732 62.416C36.274 62.9384 38.19 63.5461 39.3945 64.0303C42.5492 64.5376 45.7576 64.0366 48.2949 62.3799C49.6995 61.1437 50.8783 59.1592 50.3945 56.7168L50.3916 56.6074L52.25 55.3945C53.1448 57.7652 52.029 60.5787 51.0127 62.7383C47.6484 66.7494 42.2564 66.4312 37.123 65.2705L37.1738 65.2383C35.6519 65.1917 32.2759 63.1892 30.4707 60.5908C27.725 56.3858 29.3011 50.2154 32.6133 45.4785C35.7447 40.8687 42.2217 37.7036 47.5371 37.665L54.0732 37.4639L60.6689 35.3018C61.7334 36.5286 59.7835 38.447 60.0078 40.0166L61.7119 42.626C62.6474 42.9339 63.6059 43.3915 64.4609 43.9082L64.5176 43.8867C66.388 45.1492 66.6837 45.5796 68.1797 46.7422C69.9422 47.6925 73.8285 50.9479 75.1035 52.082L81.5781 56.9902C82.3076 57.1078 83.1428 56.859 82.96 56.0879C82.5946 53.4378 82.3955 50.4628 81.9248 47.5605C81.2763 43.55 80.1306 39.685 77.4053 36.9473C76.4215 35.9496 75.2295 35.123 73.7852 34.4736C71.4515 33.9171 69.1083 33.3666 66.7168 33.7393C66.1729 32.9058 66.825 31.8855 67.5156 31.4346L86.1426 19.5703L86.1562 19.5713ZM130.964 13.6182C135.24 10.6925 141.492 11.9651 146.284 15.0303C150.948 17.9219 154.134 24.2051 154.152 29.4824L154.332 35.9658L156.498 42.4141C155.249 43.5296 153.312 41.6835 151.719 41.9805L149.065 43.7969C148.439 45.6666 147.222 47.6542 146.109 48.7471C145.079 50.1058 144.184 51.6321 143.204 53.0332C142.217 54.8942 140.883 56.523 139.563 58.1533L139.571 58.1631C137.982 60.1323 136.416 62.0999 135.52 64.5L136.917 65.1768L143.324 63.6846L144.705 65.7021C140.311 66.6055 136.084 67.8643 131.779 69.0244C130.162 72.0948 129.202 75.691 130.332 79.1602C128.852 82.4525 124.972 78.5842 122.181 79.5059C116.244 78.995 110.82 81.0717 105.222 81.9639C104.092 80.7856 105.662 80.3546 105.997 79.4795C114.865 68.768 123.315 57.7324 131.674 46.6406L131.667 46.6299C133.902 43.6778 136.127 40.7093 138.343 37.7471C138.566 37.3827 138.794 37.0025 139.018 36.6025L139.096 36.7178C141.593 32.6762 144.091 28.8749 146.351 26.6016C147.378 24.8348 146.79 22.3345 146.014 20.2158C144.688 17.9508 143.084 15.6064 140.599 14.9277C136.003 12.7922 131.836 14.5789 129.095 17.7793C128.437 19.8792 127.651 22.3057 127.126 23.3486C126.741 26.3224 127.27 29.2633 128.845 31.5645C130.093 32.9013 132.102 33.9793 134.582 33.3828L134.692 33.374L135.916 35.1631C133.508 36.164 130.658 35.1893 128.472 34.2822C124.416 31.1309 124.758 25.7608 125.955 20.6074L126.479 21.3701C126.479 21.3051 126.488 21.2418 126.488 21.1768C125.405 20.5692 127.741 15.9544 130.964 13.6182ZM157.639 48.7041C157.973 47.8298 159.217 48.2823 159.672 48.9463L172.309 67.4131C171.888 69.9813 168.909 67.4483 167.223 68.6016L164.802 69.6104L163.125 71.835L163.128 71.8369L155.696 81.7285L148.021 70.5127C149.094 69.0617 150.175 67.6031 151.262 66.1543C151.32 65.7848 151.442 65.0542 150.924 64.751C148.809 64.9519 146.751 65.291 144.72 65.7051L143.339 63.6865L154.333 61.1133C154.628 60.8416 154.908 60.5464 155.176 60.2354L155.167 60.2246C157.615 57.2914 158.555 52.4979 157.639 48.7041Z" fill="black"/>
</svg>
