<svg width="303" height="96" viewBox="0 0 303 96" fill="none" xmlns="http://www.w3.org/2000/svg">
<path d="M285.073 15.0002C289.72 15.0004 294.033 16.6501 297.086 19.9485H297.095C297.695 20.6011 298.245 21.3056 298.737 22.0784C300.421 24.2771 301.554 26.8761 302.026 29.6282H302.08C302.539 32.4798 302.035 35.4174 300.858 38.0286C300.608 38.5009 300.325 38.974 300.024 39.4377C297.563 43.2602 293.533 46.8503 288.578 47.0393C285.567 46.8245 282.789 45.9658 280.703 43.6038C280.036 42.3669 279.001 40.7863 279.185 39.4377H281.045C281.212 40.0905 281.254 40.7952 281.629 41.259C282.788 43.621 285.342 45.1155 287.886 45.3303C291.831 44.9953 295.502 42.6073 297.604 39.4465C298.205 38.5533 298.672 37.5736 299.006 36.5344C299.506 34.3184 299.757 31.9129 299.332 29.6282H299.402C298.814 26.6457 297.232 23.8818 294.107 22.0784C292.022 20.5753 289.011 20.3688 286.458 21.219C282.144 23.3103 283.064 26.2148 283.064 26.7024C283.064 26.7302 283.02 26.7617 282.941 26.802C283.012 27.3053 282.834 27.9091 282.402 28.2317C278.311 29.5285 275.425 32.9424 273.191 36.8879H273.183C271.619 39.6366 270.368 42.6416 269.242 45.3792L267.804 49.5461L263.033 63.3792L263.051 63.3909C263.543 67.2696 267.519 68.9214 269.502 71.1379C268.751 74.1747 265.035 75.8382 263.793 78.886C261.801 83.5853 259.493 89.7998 258.501 94.4993C258.001 95.3303 257.492 95.6073 257.001 94.4993C254.58 79.7799 249.856 63.9884 245.567 49.5461H258.093L260.567 58.1145C261.059 58.6685 261.809 58.9453 262.051 58.1145C263.078 55.4213 264.392 52.5279 265.464 49.5354C266.947 45.4013 267.983 41.0997 267.277 36.8879C267.027 35.3586 266.535 33.8622 265.767 32.3772C264.284 30.4376 262.792 28.4972 260.809 27.3889C260.809 26.635 261.269 26.1376 261.796 25.8967C261.828 25.8416 261.865 25.7856 261.906 25.7288C264.918 25.514 267.47 24.6548 270.015 23.3665C271.116 22.1555 272.292 21.0135 273.535 19.9485C276.839 17.1397 280.71 15.0003 285.073 15.0002ZM97.7803 25.0002C99.4978 26.9695 96.0541 28.095 96.0537 30.3342L96.6113 33.2795C96.8531 34.5801 96.988 35.5791 97.0518 36.3333H97.0713C97.5611 38.4826 98.4496 40.5985 99.1299 42.7141C100.044 44.7588 100.598 46.972 101.159 49.1741H101.171C101.851 51.8299 102.541 54.4633 103.92 56.759L105.181 55.9153L107.412 49.1965H109.698C108.075 53.7295 106.814 58.3299 105.436 62.9417C106.95 66.305 109.219 69.3977 112.492 70.5227C114.251 73.8986 109.217 75.013 108.455 78.1077C104.927 83.1607 103.665 89.3504 101.397 94.9661C99.8927 95.2579 100.391 93.5708 99.8926 92.7268C96.3105 78.0781 92.2556 63.6095 88.1113 49.1858H88.0996C87.002 45.337 85.8862 41.4872 84.7705 37.6497C84.6549 37.3467 84.5323 37.0391 84.4043 36.7249C84.3958 36.7474 84.3454 36.7073 84.2441 36.5911C84.2886 36.6144 84.3339 36.6364 84.3779 36.6594C84.3502 36.5917 84.3225 36.5235 84.2939 36.4553C83.5308 35.0165 79.0657 28.3964 76.1299 26.6887C75.6429 25.8448 76.6264 25.0005 77.3613 25.0002H97.7803ZM228.451 25.7268C230.142 27.6663 226.751 28.7753 226.751 30.9807L227.3 33.8801C227.538 35.1606 227.672 36.1453 227.734 36.8879H227.753C228.235 39.0048 229.111 41.0895 229.781 43.1731C230.682 45.1867 231.226 47.3668 231.779 49.5354H231.791C232.461 52.1509 233.14 54.7452 234.498 57.0061L235.74 56.175L237.938 49.5579H240.189C238.591 54.0222 237.348 58.5531 235.991 63.095C237.483 66.4073 239.717 69.4536 242.94 70.5618C244.673 73.8867 239.716 74.9847 238.965 78.0325C235.49 83.0089 234.248 89.1054 232.015 94.636C230.532 94.9237 231.022 93.2623 230.531 92.4309C227.003 78.0033 223.01 63.7521 218.929 49.5461H218.917C217.836 45.7557 216.737 41.9642 215.639 38.1848C215.525 37.8866 215.404 37.583 215.278 37.2737C215.271 37.2981 215.221 37.2579 215.12 37.1418C215.164 37.1647 215.209 37.1866 215.252 37.2092C215.226 37.1459 215.199 37.0816 215.173 37.0178C214.434 35.6181 210.026 29.0758 207.129 27.3899C206.65 26.5588 206.778 25.4997 207.501 25.4993L228.451 25.7268ZM152.559 25.2932C153.311 25.5746 153.311 26.9805 152.559 27.5432C148.404 28.86 145.474 32.3269 143.206 36.3333H143.197C141.61 39.124 140.34 42.1739 139.197 44.9534L137.736 49.1858L132.893 63.2307L132.911 63.2415C133.41 67.1802 137.446 68.8579 139.46 71.1086C138.698 74.1918 134.925 75.8803 133.664 78.9749C131.641 83.7464 129.627 88.2482 128.62 93.0198C128.112 93.8636 127.105 94.4262 126.606 93.301C124.148 78.3559 119.513 63.8495 115.159 49.1858H127.876L130.389 57.885C130.887 58.4476 131.649 58.7282 131.895 57.885C132.938 55.1504 134.272 52.2125 135.36 49.1741C136.819 45.1077 137.852 40.8825 137.264 36.7346L137.201 36.3333C136.947 34.7802 136.448 33.2602 135.668 31.7522C134.162 29.7829 132.647 27.814 130.634 26.6887C130.634 25.5636 131.641 25.0005 132.394 25.0002H152.559V25.2932ZM12.1035 1.44946C18.0177 -0.970304 26.2121 0.111058 31.3154 3.4436L37.6895 7.39478L45.3613 9.51099C45.6009 11.358 42.5219 11.954 41.7412 13.5959L41.7148 17.1692C42.4135 18.0563 43.0399 19.1004 43.5293 20.136L43.5967 20.1516C44.5837 22.5439 44.5926 23.1429 45.2852 25.2024C46.3638 27.222 48.0073 32.769 48.5117 34.676L51.5908 43.4856C52.2132 44.0606 53.1682 44.3531 53.4824 43.5002C54.8131 40.7365 56.5104 37.769 57.9004 34.6975C59.8231 30.4543 61.1781 26.0352 60.3096 21.6917L67.8408 21.7463C65.8259 24.5622 64.2084 27.6448 62.752 30.4534L60.8857 34.7307L54.6973 48.9299L54.7188 48.9417C55.3163 52.9408 60.3764 54.6786 62.8896 56.9797C61.9094 60.0997 57.1558 61.7777 55.5488 64.9045C52.9723 69.7249 50.4097 74.2721 49.1094 79.1018C48.465 79.953 47.1956 80.5139 46.5771 79.3684C43.5997 64.1891 37.8837 49.4341 32.5225 34.5227L32.623 34.5237C32.5387 34.3775 32.4473 34.2113 32.3525 34.0256C31.0137 31.401 28.7052 25.0531 27.374 21.2883C25.6028 16.9081 24.2796 12.7335 23.3096 8.73169C22.2935 6.67306 19.4875 5.62317 16.9238 4.98657C13.8508 4.75819 10.5138 4.73398 8.19434 6.57056C3.0553 9.40826 1.98821 14.3434 3.23926 18.8752C4.53356 20.453 5.98035 22.2477 6.82422 23.4739C9.51673 25.9579 12.8988 27.512 16.373 27.5374C18.4989 27.2466 20.8828 26.0988 21.9688 23.4583L22.0352 23.3528L24.5801 23.3713C23.9324 26.2039 21.0833 28.1845 18.7432 29.6038C12.986 31.304 8.03536 27.5829 3.86621 23.22H3.93555C2.51074 22.2105 0.553936 18.1567 0.476562 14.5295C0.518685 8.77119 5.93603 3.87591 12.1035 1.44946ZM175.958 10.0002C177.611 11.8953 174.297 12.979 174.297 15.134L174.834 17.967C175.099 19.3937 175.233 20.4431 175.281 21.1965C176.74 25.03 176.96 25.9666 177.391 26.6741C178.42 28.905 178.753 29.7498 178.956 30.4788H178.977C179.815 33.6019 180.646 36.7251 181.517 39.8401C182.398 42.9961 183.351 46.1279 184.386 49.2346H184.394C184.943 50.8866 185.542 52.5228 186.164 54.1418C186.843 52.5145 187.49 50.8866 188.104 49.2346H188.315C189.423 46.2055 190.458 43.1462 191.417 40.0637H193.666C192.655 43.2361 191.686 46.4256 190.781 49.6399L190.772 49.6487H190.575C189.73 52.6207 188.936 55.6225 188.226 58.6545C187.992 60.298 189.826 61.1202 191.2 61.7366C192.122 62.3447 193.497 62.1395 194.184 63.3723C193.262 65.8297 190.053 65.8299 188.452 68.0901C185.009 71.5832 182.033 75.0763 180.659 79.3831L179.746 80.0002C178.372 78.7757 179.058 76.7208 178.146 75.2825C175.753 66.6276 173.408 57.9307 170.991 49.2512C170.118 46.128 169.237 42.9959 168.34 39.8645C167.443 36.7333 166.529 33.6018 165.6 30.4788H165.651C164.815 27.5657 163.972 24.6532 163.128 21.7483C162.971 21.3368 162.805 20.9138 162.622 20.4807H162.667C161.418 18.4338 157.673 13.1065 155.125 11.6243C154.656 10.8122 154.418 10.0002 155.125 10.0002H175.958ZM255.842 26.0149C257.574 27.9542 254.1 29.0635 254.1 31.2688L253.608 34.0393L254.427 36.8879H254.43L258.081 49.5354H245.567C245.022 47.6957 244.477 45.8442 243.941 43.9934C243.691 43.7162 243.199 43.1621 242.699 43.4387C241.752 45.4446 240.94 47.4848 240.198 49.5461H237.946L241.708 38.1848C241.655 37.7566 241.575 37.3279 241.478 36.8997H241.467C240.511 32.9319 237.357 29.1734 233.998 27.677C233.508 26.8462 234.498 26.0155 235.239 26.0149H255.842ZM258.084 49.5461L258.081 49.5354H258.093L258.084 49.5461ZM125.591 25.2922C127.351 27.2617 123.821 28.3876 123.821 30.6272L123.322 33.4407L124.154 36.3333H124.157L127.864 49.1741H115.159C114.606 47.306 114.052 45.4265 113.508 43.5471C113.254 43.2658 112.755 42.7033 112.247 42.9846C111.286 45.0215 110.46 47.0927 109.707 49.1858H107.421L111.24 37.6497C111.186 37.2144 111.105 36.7792 111.006 36.344H110.995C110.025 32.3152 106.823 28.5001 103.412 26.9807C102.913 26.1368 103.92 25.2925 104.673 25.2922H125.591ZM127.867 49.1858L127.864 49.1741H127.876L127.867 49.1858ZM210.71 10.4202C211.867 12.3081 208.631 12.099 207.938 13.5676C203.782 16.7149 201.238 20.4833 198.932 24.26C198.223 26.3245 197.521 28.398 196.82 30.4709C195.744 33.6516 194.694 36.8413 193.675 40.0471H191.425C192.411 36.8664 193.365 33.6769 194.286 30.4709C194.914 28.3308 195.525 26.1902 196.152 24.05C196.617 19.0228 195.231 14.1971 190.609 11.4778V11.469C189.688 11.4691 188.304 11.678 187.839 10.8391C188.076 9.79067 189.917 10.21 191.074 10.0002L210.71 10.4202ZM79.667 10.0999H80.5C81.4433 10.3924 80.9498 11.9365 80 12.5002C76.8588 10.9547 71.0304 17.2438 67.8535 21.6926L60.3086 21.637C60.001 20.0597 59.3857 18.5142 58.417 16.9778C56.5401 14.9668 54.6511 12.9559 52.1299 11.7961C52.1382 10.655 53.4077 10.0921 54.3535 10.0989L79.667 10.0999Z" fill="black"/>
</svg>
