<svg width="957" height="355" viewBox="0 0 957 355" fill="none" xmlns="http://www.w3.org/2000/svg">
<path d="M957.002 354L0.00195312 354.997L0 352.997L0.00195312 352.996V2.99707L0 0.99707L955.002 0.00195312V0H957.002V354ZM2.00195 2.99414V352.994L44.002 352.951V2.95117L2.00195 2.99414ZM46.002 352.948H46.04L153.228 322.58L155.743 321.071L155.759 321.062L155.776 321.053L158.646 319.617L160 317.361V291.5H147.382L145.157 290.388L145.084 290.277L144.047 288.722L144.025 288.658L143.025 285.658L143 285.581V277.419L143.025 277.342L144.025 274.342L144.052 274.265L144.1 274.2L148.594 268.208L150.584 265.223L152 262.861V253.062L151.521 251.149L150.536 248.686L150.521 248.648L150.512 248.608L149.512 244.108L148.524 239.668L147.053 236.724L147.017 236.651L147.005 236.57L146.505 233.07L146.5 233.035V230.45L146.51 230.402L147.01 227.902L147.032 227.791L147.1 227.7L148.6 225.7L148.671 225.605L150.776 224.553L150.809 224.537L150.842 224.525L153.842 223.525L156.218 222.574L158.089 220.704L159.013 218.856L159.503 214.444L159.553 214H165.002V77L46.002 3.61621V352.948ZM166.002 214H165.91L165.99 214.402L166.481 216.858L167.443 219.264L168.389 220.682L170.296 222.589L172.21 223.546L177.186 225.536L177.315 225.588L177.4 225.7L178.9 227.7L178.939 227.753L178.964 227.814L179.964 230.314L180.032 230.484L179.975 230.658L179 233.582V236.073L178.979 236.144L177.481 241.131L175.982 246.632L175.979 246.645L175.975 246.658L173.982 252.635L173 257.056V259.918L173.958 262.794L175.935 266.252L175.941 266.264L175.947 266.276L177.411 269.204L179.897 271.69L179.929 271.743L181.429 274.243L181.457 274.29L181.475 274.342L182.475 277.342L182.5 277.419V280.787L193.989 276.299V276.269L194.069 276.268L194.73 276.01L194.766 276.26L219.891 276L219.893 276.268L220 276.269L219.932 318.594L244 318.413V294.5H231.382L229.157 293.388L229.084 293.277L228.047 291.722L228.025 291.658L227.025 288.658L227 288.581V280.419L227.025 280.342L228.025 277.342L228.052 277.265L228.1 277.2L232.594 271.208L234.584 268.223L236 265.861V256.062L235.521 254.149L234.536 251.686L234.521 251.648L234.512 251.608L233.512 247.108L232.524 242.668L231.053 239.724L231.017 239.651L231.005 239.57L230.505 236.07L230.5 236.035V233.45L230.51 233.402L231.01 230.902L231.032 230.791L231.1 230.7L232.6 228.7L232.671 228.605L234.776 227.553L234.809 227.537L234.842 227.525L237.842 226.525L240.218 225.574L242.089 223.704L243.013 221.856L243.503 217.444L243.553 217H249.91L249.99 217.402L250.481 219.858L251.443 222.264L252.389 223.682L254.296 225.589L256.21 226.546L261.186 228.536L261.315 228.588L261.4 228.7L262.9 230.7L262.939 230.753L262.964 230.814L263.964 233.314L264.032 233.484L263.975 233.658L263 236.582V239.073L262.979 239.144L261.481 244.131L259.982 249.632L259.979 249.645L259.975 249.658L257.982 255.635L257 260.056V262.918L257.958 265.794L259.935 269.252L259.941 269.264L259.947 269.276L261.411 272.204L263.897 274.69L263.929 274.743L265.429 277.243L265.457 277.29L265.475 277.342L266.475 280.342L266.5 280.419V290.651L265.408 292.289L265.4 292.3L263.9 294.3L263.75 294.5H250V318.368L298.995 318L299.002 319L250 319.368V320.349L250.889 321.682L251.818 322.611L253.251 323.566L255.21 324.546L257.686 325.536L257.747 325.561L257.8 325.6L259.8 327.1L259.497 327.503L265.254 326.107L265.27 326.176L279.927 326.083L279.938 326.819L280 326.82L279.943 348.83H279.942L269.696 351.937H254.833V333H234.919L234.842 332.975L233.342 332.475L233.229 332.438L233.146 332.354L232 331.207V329.849L233.084 328.223L233.14 328.14L233.223 328.084L234.723 327.084L234.732 327.077L234.743 327.071L239.743 324.071L239.759 324.062L239.776 324.053L242.646 322.617L244 320.361V319.413L219.93 319.594L219.901 337.61L202.171 346.269H177.141V345.269H177.184V329.467L176.118 330H150.919L150.842 329.975L149.342 329.475L149.229 329.438L149.146 329.354L148 328.207V326.849L149.084 325.223L149.14 325.14L149.223 325.084L150.082 324.51L49.7236 352.944L299.002 352.686V77H166.002V214ZM301.002 2.68262V352.683L338.002 352.645V2.64453L301.002 2.68262ZM340.38 352.642L601.88 352.369L566.604 319H527V349H500L496.071 338H496V337.799L495.774 337.168L496 337.087V319H455.579L454 329V330H424V319H400.462V339.05L401.21 340.374L401.982 341.284L403.17 342.219L404.793 343.176L406.859 344.15L406.924 344.181L406.978 344.228L408.639 345.697L409.879 346.673L410.007 346.773L410.051 346.93L410.469 348.408L410.487 348.475V349.631L410.448 349.725L410.03 350.71L409.966 350.861L409.824 350.945L408.988 351.438L408.871 351.507H387.754L387.665 351.473L386.412 350.979L386.295 350.934L386.214 350.838L385.378 349.853L385.26 349.713V348.412L385.324 348.298L386.16 346.819L386.209 346.733L386.286 346.673L387.539 345.688L387.549 345.68L387.56 345.672L389.648 344.194L391.736 342.716L391.754 342.704L391.771 342.693L394.151 341.289L395.285 339.062V319H376.002L340.38 352.642ZM605.002 2.36621V352.366L643.002 352.326V2.32617L605.002 2.36621ZM714.5 320.118L713.947 321.224L713.873 321.373L713.724 321.447L712.618 322H687.419L687.342 321.975L685.842 321.475L685.729 321.438L685.646 321.354L684.5 320.207V319.5H674V326H653V325.441L648.163 321.033L648.193 321H648V319.5H645.002V352.324L903.668 352.055L848.562 336.441L849.389 337.682L850.318 338.611L851.751 339.566L853.71 340.546L856.186 341.536L856.247 341.561L856.3 341.6L858.292 343.094L859.777 344.084L859.92 344.179L859.975 344.342L860.475 345.842L860.5 345.919V347.118L859.947 348.224L859.873 348.373L859.724 348.447L858.618 349H833.419L833.342 348.975L831.842 348.475L831.729 348.438L831.646 348.354L830.5 347.207V345.849L831.584 344.223L831.64 344.14L831.723 344.084L833.223 343.084L833.232 343.077L833.243 343.071L838.243 340.071L838.259 340.062L838.276 340.053L841.146 338.617L842.5 336.361V334.724L789.5 319.707V320.118L788.947 321.224L788.873 321.373L788.724 321.447L787.618 322H762.419L762.342 321.975L760.842 321.475L760.729 321.438L760.646 321.354L759.5 320.207V319H742.5V339.349L743.389 340.682L744.318 341.611L745.751 342.566L747.71 343.546L750.186 344.536L750.247 344.561L750.3 344.6L752.292 346.094L753.777 347.084L753.92 347.179L753.975 347.342L754.475 348.842L754.5 348.919V350.118L753.947 351.224L753.873 351.373L753.724 351.447L752.618 352H727.419L727.342 351.975L725.842 351.475L725.729 351.438L725.646 351.354L724.5 350.207V348.849L725.584 347.223L725.64 347.14L725.723 347.084L727.223 346.084L727.232 346.077L727.243 346.071L732.243 343.071L732.259 343.062L732.276 343.053L735.146 341.617L736.5 339.361V319H714.5V320.118ZM603.002 352.054V326.201L594 319H568.06L603.002 352.054ZM788.002 76V217.062L789.186 217.536L789.315 217.588L789.4 217.7L790.9 219.7L790.939 219.753L790.964 219.814L791.964 222.314L792.032 222.484L791.975 222.658L791 225.582V228.073L790.979 228.144L789.481 233.131L787.982 238.632L787.979 238.645L787.975 238.658L787.86 239H788.002V258.386L789.411 261.204L791.897 263.69L791.929 263.743L793.429 266.243L793.457 266.29L793.475 266.342L794.475 269.342L794.5 269.419V279.651L793.408 281.289L793.4 281.3L791.9 283.3L791.75 283.5H788.002V316.566L788.777 317.084L788.92 317.179L788.975 317.342L789.408 318.643L842.5 333.685V310.5H830.382L828.157 309.388L828.084 309.277L827.047 307.722L827.025 307.658L826.025 304.658L826 304.581V296.419L826.025 296.342L827.025 293.342L827.052 293.265L827.1 293.2L831.594 287.208L833.584 284.223L835 281.861V272.062L834.521 270.149L833.536 267.686L833.521 267.648L833.512 267.608L832.512 263.108L831.524 258.668L830.053 255.724L830.017 255.651L830.005 255.57L829.505 252.07L829.5 252.035V249.45L829.51 249.402L830.01 246.902L830.032 246.791L830.1 246.7L831.6 244.7L831.671 244.605L833.776 243.553L833.809 243.537L833.842 243.525L836.842 242.525L839.218 241.574L841.089 239.704L842.013 237.856L842.503 233.444L842.553 233H846.358L790.723 216.961L790.999 216L790.5 215.998L791 109.955L792 109.96L791.999 110.02L899.574 52.1123L900.035 52.999L791.994 111.158L791.5 216.003L791.001 216L901.016 247.716L900.035 52L901.035 51.9951L902.018 247.994H901.979L902 248L901.723 248.961L849.065 233.78L849.481 235.858L850.443 238.264L851.389 239.682L853.296 241.589L855.21 242.546L860.186 244.536L860.315 244.588L860.4 244.7L861.9 246.7L861.939 246.753L861.964 246.814L862.964 249.314L863.032 249.484L862.975 249.658L862 252.582V255.073L861.979 255.144L860.481 260.131L858.982 265.632L858.979 265.645L858.975 265.658L856.982 271.635L856 276.056V278.918L856.958 281.794L858.935 285.252L858.941 285.264L858.947 285.276L860.411 288.204L862.897 290.69L862.929 290.743L864.429 293.243L864.457 293.29L864.475 293.342L865.475 296.342L865.5 296.419V306.651L864.408 308.289L864.4 308.3L862.9 310.3L862.75 310.5H848.5V335.385L907.274 352.038L907.271 352.052L908.002 352.051V2.05078H907.919L788.002 76ZM910.002 2.04883V352.049L955.002 352.002V2.00195L910.002 2.04883ZM340.002 325.451V351.625L374.546 319H347.376L340.002 325.451ZM737.5 339.639L737.429 339.757L735.929 342.257L735.854 342.382L735.724 342.447L732.737 343.94L727.771 346.92L726.36 347.86L725.5 349.151V349.793L726.27 350.562L727.582 351H752.382L753.127 350.627L753.5 349.882V349.082L753.079 347.82L751.711 346.908L751.7 346.9L749.751 345.438L747.295 344.456L747.276 344.447L745.249 343.434L743.682 342.389L742.611 341.318L741.5 339.651V313.5H737.5V339.639ZM255.833 350.937H268.597V329.568H255.833V350.937ZM269.696 329.568H269.597V350.921L278.944 348.087L278.998 327.312L269.696 329.568ZM396.285 339.303L396.23 339.409L394.978 341.873L394.911 342.003L394.786 342.077L392.299 343.542L390.226 345.011L388.146 346.481L386.98 347.398L386.26 348.676V349.345L386.894 350.094L387.942 350.507H408.598L409.173 350.167L409.487 349.428V348.61L409.133 347.358L408.008 346.474L407.996 346.465L407.985 346.455L406.368 345.024L404.344 344.069L404.323 344.06L404.304 344.048L402.633 343.062L402.604 343.045L402.577 343.024L401.324 342.039L401.284 342.008L401.252 341.97L400.416 340.984L400.386 340.948L400.362 340.906L399.527 339.429L399.462 339.314V313.076H396.285V339.303ZM501 348H526V294H501V348ZM843.5 336.639L843.429 336.757L841.929 339.257L841.854 339.382L841.724 339.447L838.737 340.94L833.771 343.92L832.36 344.86L831.5 346.151V346.793L832.27 347.562L833.582 348H858.382L859.127 347.627L859.5 346.882V346.082L859.079 344.82L857.711 343.908L857.7 343.9L855.751 342.438L853.295 341.456L853.276 341.447L851.249 340.434L849.682 339.389L848.611 338.318L847.5 336.651V310.5H843.5V336.639ZM497 337.627L500 346.026V294L497 290.399V337.627ZM178.184 345.269H201V283.927H178.184V345.269ZM202.171 283.927H202V345.269H202.029L218.901 337.027L218.997 277.353L202.171 283.927ZM245 320.639L244.929 320.757L243.429 323.257L243.354 323.382L243.224 323.447L240.237 324.94L235.271 327.92L233.86 328.86L233 330.151V330.793L233.77 331.562L235.082 332H254.833V329.568H255.229L255.008 328.593L258.873 327.654L257.251 326.438L254.795 325.456L254.776 325.447L252.749 324.434L251.182 323.389L250.111 322.318L249 320.651V294.5H245V320.639ZM161 317.639L160.929 317.757L159.429 320.257L159.354 320.382L159.224 320.447L156.237 321.94L153.635 323.501L153.636 323.504L153.627 323.506L151.271 324.92L149.86 325.86L149 327.151V327.793L149.77 328.562L151.082 329H175.882L176.627 328.627L177 327.882V327.082L176.579 325.82L175.211 324.908L175.2 324.9L173.251 323.438L170.795 322.456L170.776 322.447L168.749 321.434L167.182 320.389L166.111 319.318L165 317.651V291.5H161V317.639ZM425 329H453V278H425V329ZM265.084 327.178L259.353 328.568H269.574L275.584 327.11L265.084 327.178ZM168.374 319.981L169.251 320.566L171.21 321.546L173.686 322.536L173.747 322.561L173.8 322.6L175.792 324.094L177.184 325.021V319.915L168.374 319.981ZM654 325H673V271H654V325ZM595.292 76H603V77H595V318.519L603.002 324.921V66.5762L595.292 76ZM340.002 324.123L347 318V77H340.002V324.123ZM649 320.442L653 324.088V270.8L649 269.899V320.442ZM454 277.018V322.587L454.736 317.922L455 317.963V274.839L454 277.018ZM697.5 309.639L697.429 309.757L695.929 312.257L695.854 312.382L695.724 312.447L692.737 313.94L687.771 316.92L686.36 317.86L685.5 319.151V319.793L686.27 320.562L687.582 321H712.382L713.127 320.627L713.5 319.882V319.082L713.079 317.82L711.711 316.908L711.7 316.9L709.751 315.438L707.295 314.456L707.276 314.447L705.249 313.434L703.682 312.389L702.611 311.318L701.5 309.651V283.5H697.5V309.639ZM772.5 309.639L772.429 309.757L770.929 312.257L770.854 312.382L770.724 312.447L767.737 313.94L762.771 316.92L761.36 317.86L760.5 319.151V319.793L761.27 320.562L762.582 321H787.382L788.127 320.627L788.5 319.882V319.082L788.079 317.82L786.711 316.908L786.7 316.9L784.751 315.438L782.295 314.456L782.276 314.447L780.249 313.434L778.682 312.389L777.611 311.318L776.5 309.651V283.5H772.5V309.639ZM166.002 317.352L166.889 318.682L167.276 319.069V318.99L177.184 318.915V291.5H166.002V317.352ZM348 318H375V318.57L375.002 318.569V77.2266L374.894 77H348V318ZM645.002 318.5H648V268H666L674 270V318.5H684.732L685.584 317.223L685.64 317.14L685.723 317.084L687.223 316.084L687.232 316.077L687.243 316.071L692.243 313.071L692.259 313.062L692.276 313.053L695.146 311.617L696.5 309.361V283.5H684.382L682.157 282.388L682.084 282.277L681.047 280.722L681.025 280.658L680.025 277.658L680 277.581V269.419L680.025 269.342L681.025 266.342L681.052 266.265L681.1 266.2L685.594 260.208L687.584 257.223L689 254.861V245.062L688.521 243.149L687.536 240.686L687.521 240.648L687.512 240.608L686.512 236.108L685.524 231.668L684.053 228.724L684.017 228.651L684.005 228.57L683.925 228.007H648.03V227.007H683.781L683.505 225.07L683.5 225.035V222.45L683.51 222.402L684.01 219.902L684.032 219.791L684.1 219.7L685.6 217.7L685.671 217.605L687.776 216.553L687.809 216.537L687.842 216.525L690.842 215.525L693.218 214.574L695.089 212.704L696.013 210.856L696.503 206.444L696.553 206H702.91L702.99 206.402L703.481 208.858L704.443 211.264L705.389 212.682L707.296 214.589L709.21 215.546L714.186 217.536L714.315 217.588L714.4 217.7L715.9 219.7L715.939 219.753L715.964 219.814L716.964 222.314L717.032 222.484L716.975 222.658L716 225.582V227.007H755.007L755.993 84H649.03L649 227H648L648.03 84V83H756L757 83.0068L756 228.008L755.875 228.007H716V228.073L715.979 228.144L714.481 233.131L712.982 238.632L712.979 238.645L712.975 238.658L710.982 244.635L710 249.056V251.918L710.958 254.794L712.935 258.252L712.941 258.264L712.947 258.276L714.411 261.204L716.897 263.69L716.929 263.743L718.429 266.243L718.457 266.29L718.475 266.342L719.475 269.342L719.5 269.419V279.651L718.408 281.289L718.4 281.3L716.9 283.3L716.75 283.5H702.5V309.349L703.389 310.682L704.318 311.611L705.751 312.566L707.71 313.546L710.186 314.536L710.247 314.561L710.3 314.6L712.292 316.094L713.777 317.084L713.92 317.179L713.975 317.342L714.194 318H736.5V313.5H724.382L722.157 312.388L722.084 312.277L721.047 310.722L721.025 310.658L720.025 307.658L720 307.581V299.419L720.025 299.342L721.025 296.342L721.052 296.265L721.1 296.2L725.594 290.208L727.584 287.223L729 284.861V275.062L728.521 273.149L727.536 270.686L727.521 270.648L727.512 270.608L726.512 266.108L725.524 261.668L724.053 258.724L724.017 258.651L724.005 258.57L723.505 255.07L723.5 255.035V252.45L723.51 252.402L724.01 249.902L724.032 249.791L724.1 249.7L725.6 247.7L725.671 247.605L727.776 246.553L727.809 246.537L727.842 246.525L730.842 245.525L733.218 244.574L735.089 242.704L736.013 240.856L736.503 236.444L736.553 236H742.91L742.99 236.402L743.481 238.858L744.443 241.264L745.389 242.682L747.296 244.589L749.21 245.546L754.186 247.536L754.315 247.588L754.4 247.7L755.9 249.7L755.939 249.753L755.964 249.814L756.964 252.314L757.032 252.484L756.975 252.658L756 255.582V258.073L755.979 258.144L754.481 263.131L752.982 268.632L752.979 268.645L752.975 268.658L750.982 274.635L750 279.056V281.918L750.958 284.794L752.935 288.252L752.941 288.264L752.947 288.276L754.411 291.204L756.897 293.69L756.929 293.743L758.429 296.243L758.457 296.29L758.475 296.342L759.475 299.342L759.5 299.419V309.651L758.408 311.289L758.4 311.3L756.9 313.3L756.75 313.5H742.5V318H760V318.099L760.584 317.223L760.64 317.14L760.723 317.084L762.223 316.084L762.232 316.077L762.243 316.071L767.243 313.071L767.259 313.062L767.276 313.053L770.146 311.617L771.5 309.361V283.5H759.382L757.157 282.388L757.084 282.277L756.047 280.722L756.025 280.658L755.025 277.658L755 277.581V269.419L755.025 269.342L756.025 266.342L756.052 266.265L756.1 266.2L760.594 260.208L762.584 257.223L764 254.861V245.062L763.521 243.149L762.536 240.686L762.521 240.648L762.512 240.608L761.512 236.108L760.524 231.668L759.053 228.724L759.017 228.651L759.005 228.57L758.505 225.07L758.5 225.035V222.45L758.51 222.402L759.01 219.902L759.032 219.791L759.1 219.7L760.6 217.7L760.671 217.605L762.776 216.553L762.809 216.537L762.842 216.525L765.842 215.525L768.218 214.574L770.089 212.704L771.013 210.856L771.503 206.444L771.553 206H777.91L777.99 206.402L778.481 208.858L779.443 211.264L780.389 212.682L782.296 214.589L784.21 215.546L787.002 216.662V76H645.002V318.5ZM376.002 318H395.285V313.076H385.623L385.506 313.007L383.835 312.021L383.72 311.954L383.653 311.837L382.818 310.359L382.789 310.307L382.772 310.249L381.937 307.293L381.918 307.227V299.204L381.937 299.138L382.772 296.182L382.792 296.111L382.831 296.049L384.085 294.078L385.338 292.107L386.582 290.15L387.413 288.681L388.248 287.203L389.491 284.759L389.519 284.772V283.985H407.898V284.783L407.932 284.768L409.603 288.216L409.612 288.239L410.834 291.123L412.875 293.53L412.913 293.575L412.939 293.627L414.192 296.091L414.215 296.135L414.229 296.182L415.063 299.138L415.083 299.204V309.259L415.018 309.374L414.183 310.852L414.176 310.863L414.169 310.874L412.916 312.845L412.769 313.076H400.462V318H424V277H424.703L432 272.257V272H456V318H496V288H518.657L518.783 287.817L526.311 293H527V318H566.002V77H376.002V318ZM567.002 318H594V77H567.002V318ZM777.5 309.349L778.389 310.682L779.318 311.611L780.751 312.566L782.71 313.546L785.186 314.536L785.247 314.561L785.3 314.6L787.002 315.876V283.5H777.5V309.349ZM736.997 241.056L736.987 241.144L735.911 243.296L733.781 245.426L733.686 245.464L731.186 246.464L731.172 246.47L731.158 246.475L728.19 247.464L726.329 248.394L724.968 250.21L724.5 252.549V254.964L724.983 258.349L726.475 261.331L726.488 261.392L727.488 265.892L728.479 270.354L729.464 272.814L729.477 272.846L729.485 272.879L729.985 274.879L730 274.938V285.139L729.929 285.257L728.429 287.757L728.423 287.768L728.416 287.777L726.408 290.789L726.4 290.8L723.4 294.8L721.948 296.734L721 299.582V307.418L721.953 310.279L722.842 311.611L724.618 312.5H756.25L757.594 310.708L758.5 309.349V299.582L757.542 296.708L756.104 294.311L753.589 291.796L752.062 288.741L750.065 285.248L750.041 285.205L749.025 282.158L749 282.081V278.945L749.012 278.892L750.012 274.392L750.018 274.366L750.025 274.342L752.021 268.352L753.518 262.868L753.521 262.856H753.521L755 257.928V255.419L755.025 255.342L755.968 252.515L755.062 250.249L753.683 248.411L748.795 246.456L748.776 246.447L746.704 245.411L744.611 243.318L743.584 241.777L743.555 241.734L743.536 241.686L742.536 239.186L742.519 239.144L742.51 239.098L742.09 237H737.447L736.997 241.056ZM390.383 285.212L389.13 287.676L389.124 287.686L389.119 287.695L388.283 289.173L387.448 290.651L387.441 290.662L387.435 290.674L384.929 294.615L383.713 296.525L382.918 299.343V307.086L383.718 309.919L384.458 311.228L385.896 312.076H412.22L413.311 310.359L414.083 308.995V299.343L413.277 296.497L412.073 294.132L410.024 291.714L409.975 291.655L409.945 291.586L408.691 288.63H408.69L407.031 285.203L407.481 284.985H389.937L390.383 285.212ZM842.997 238.056L842.987 238.144L841.911 240.296L839.781 242.426L839.686 242.464L837.186 243.464L837.172 243.47L837.158 243.475L834.19 244.464L832.329 245.394L830.968 247.21L830.5 249.549V251.964L830.983 255.349L832.475 258.331L832.488 258.392L833.488 262.892L834.479 267.354L835.464 269.814L835.477 269.846L835.485 269.879L835.985 271.879L836 271.938V282.139L835.929 282.257L834.429 284.757L834.423 284.768L834.416 284.777L832.408 287.789L832.4 287.8L829.4 291.8L827.948 293.734L827 296.582V304.418L827.953 307.279L828.842 308.611L830.618 309.5H862.25L863.594 307.708L864.5 306.349V296.582L863.542 293.708L862.104 291.311L859.589 288.796L858.062 285.741L856.065 282.248L856.041 282.205L855.025 279.158L855 279.081V275.945L855.012 275.892L856.012 271.392L856.018 271.366L856.025 271.342L858.021 265.352L859.518 259.868L859.521 259.856H859.521L861 254.928V252.419L861.025 252.342L861.968 249.515L861.062 247.249L859.683 245.411L854.795 243.456L854.776 243.447L852.704 242.411L850.611 240.318L849.584 238.777L849.555 238.734L849.536 238.686L848.536 236.186L848.519 236.144L848.51 236.098L848.09 234H843.447L842.997 238.056ZM243.997 222.056L243.987 222.144L242.911 224.296L240.781 226.426L240.686 226.464L238.186 227.464L238.172 227.47L238.158 227.475L235.19 228.464L233.329 229.394L231.968 231.21L231.5 233.549V235.964L231.983 239.349L233.475 242.331L233.488 242.392L234.488 246.892L235.479 251.354L236.464 253.814L236.477 253.846L236.485 253.879L236.985 255.879L237 255.938V266.139L236.929 266.257L235.429 268.757L235.423 268.768L235.416 268.777L233.408 271.789L233.4 271.8L230.4 275.8L228.948 277.734L228 280.582V288.418L228.953 291.279L229.842 292.611L231.618 293.5H263.25L264.594 291.708L265.5 290.349V280.582L264.542 277.708L263.104 275.311L260.589 272.796L259.062 269.741L257.065 266.248L257.041 266.205L256.025 263.158L256 263.081V259.945L256.012 259.892L257.012 255.392L257.018 255.366L257.025 255.342L259.021 249.352L260.518 243.868L260.521 243.856H260.521L262 238.928V236.419L262.025 236.342L262.968 233.515L262.062 231.249L260.683 229.411L255.795 227.456L255.776 227.447L253.704 226.411L251.611 224.318L250.584 222.777L250.555 222.734L250.536 222.686L249.536 220.186L249.519 220.144L249.51 220.098L249.09 218H244.447L243.997 222.056ZM500.468 293H524.548L518.738 289H497.135L500.468 293ZM159.997 219.056L159.987 219.144L158.911 221.296L156.781 223.426L156.686 223.464L154.186 224.464L154.172 224.47L154.158 224.475L151.19 225.464L149.329 226.394L147.968 228.21L147.5 230.549V232.964L147.983 236.349L149.475 239.331L149.488 239.392L150.488 243.892L151.479 248.354L152.464 250.814L152.477 250.846L152.485 250.879L152.985 252.879L153 252.938V263.139L152.929 263.257L151.429 265.757L151.423 265.768L151.416 265.777L149.408 268.789L149.4 268.8L146.4 272.8L144.948 274.734L144 277.582V285.418L144.953 288.279L145.842 289.611L147.618 290.5H177.184V283.927H177.141L177 282.937L181.957 281H181.5V277.582L180.542 274.708L179.104 272.311L176.589 269.796L175.062 266.741L173.065 263.248L173.041 263.205L172.025 260.158L172 260.081V256.945L172.012 256.892L173.012 252.392L173.018 252.366L173.025 252.342L175.021 246.352L176.518 240.868L176.521 240.856H176.521L178 235.928V233.419L178.025 233.342L178.968 230.515L178.062 228.249L176.683 226.411L171.795 224.456L171.776 224.447L169.704 223.411L167.611 221.318L166.584 219.777L166.555 219.734L166.536 219.686L165.536 217.186L165.519 217.144L165.51 217.098L165.09 215H160.447L159.997 219.056ZM194.188 277.266L179.7 282.927H202.057L217.154 277.027L194.188 277.266ZM696.997 211.056L696.987 211.144L695.911 213.296L693.781 215.426L693.686 215.464L691.186 216.464L691.172 216.47L691.158 216.475L688.19 217.464L686.329 218.394L684.968 220.21L684.5 222.549V224.964L684.983 228.349L686.475 231.331L686.488 231.392L687.488 235.892L688.479 240.354L689.464 242.814L689.477 242.846L689.485 242.879L689.985 244.879L690 244.938V255.139L689.929 255.257L688.429 257.757L688.423 257.768L688.416 257.777L686.408 260.789L686.4 260.8L683.4 264.8L681.948 266.734L681 269.582V277.418L681.953 280.279L682.842 281.611L684.618 282.5H716.25L717.594 280.708L718.5 279.349V269.582L717.542 266.708L716.104 264.311L713.589 261.796L712.062 258.741L710.065 255.248L710.041 255.205L709.025 252.158L709 252.081V248.945L709.012 248.892L710.012 244.392L710.018 244.366L710.025 244.342L712.021 238.352L713.518 232.868L713.521 232.856H713.521L715 227.928V225.419L715.025 225.342L715.968 222.515L715.062 220.249L713.683 218.411L708.795 216.456L708.776 216.447L706.704 215.411L704.611 213.318L703.584 211.777L703.555 211.734L703.536 211.686L702.536 209.186L702.519 209.144L702.51 209.098L702.09 207H697.447L696.997 211.056ZM771.997 211.056L771.987 211.144L770.911 213.296L768.781 215.426L768.686 215.464L766.186 216.464L766.172 216.47L766.158 216.475L763.19 217.464L761.329 218.394L759.968 220.21L759.5 222.549V224.964L759.983 228.349L761.475 231.331L761.488 231.392L762.488 235.892L763.479 240.354L764.464 242.814L764.477 242.846L764.485 242.879L764.985 244.879L765 244.938V255.139L764.929 255.257L763.429 257.757L763.423 257.768L763.416 257.777L761.408 260.789L761.4 260.8L758.4 264.8L756.948 266.734L756 269.582V277.418L756.953 280.279L757.842 281.611L759.618 282.5H791.25L792.594 280.708L793.5 279.349V269.582L792.542 266.708L791.104 264.311L788.589 261.796L787.062 258.741L785.065 255.248L785.041 255.205L784.025 252.158L784 252.081V248.945L784.012 248.892L785.012 244.392L785.018 244.366L785.025 244.342L787.021 238.352L788.518 232.868L788.521 232.856H788.521L790 227.928V225.419L790.025 225.342L790.968 222.515L790.062 220.249L788.683 218.411L783.795 216.456L783.776 216.447L781.704 215.411L779.611 213.318L778.584 211.777L778.555 211.734L778.536 211.686L777.536 209.186L777.519 209.144L777.51 209.098L777.09 207H772.447L771.997 211.056ZM426.538 277H452.909L454.743 273H432.691L426.538 277ZM654 270H669.879L665.879 269H649.556L654 270ZM493.992 218H494.381L494.372 258.085H493.992V258.634H463.009V258.085H463L463.009 218V217H493.992V218ZM464 257.634H493.372L493.381 218H464.009L464 257.634ZM95.8584 226.614L95.8291 226.985H96.7793V255.146H96.4053L73 256.992V257.022H72V225.733L72.0791 224.737L95.8584 226.614ZM785.982 244.635L785 249.056V251.918L785.958 254.794L787.002 256.62V241.576L785.982 244.635ZM73 255.989L95.7793 254.191V227.611L73 225.812V255.989ZM558.813 226H559.522L559.518 240.442H558.813V240.64H544.004V240.442H544L544.004 226V225H558.813V226ZM545 239.64H558.518L558.522 226H545.004L545 239.64ZM230.312 186H230.694L230.687 216.289H230.312V216.704H199.009V216.289H199L199.009 186V185H230.312V186ZM200 215.704H229.687L229.694 186H200.009L200 215.704ZM151.709 183.646L151.618 183.934H152.059V211.525H151.524L151.483 211.792L126.992 210.035L127.01 209.923V180.969L126.978 180.965L127.278 180.011L151.709 183.646ZM128.01 209.108L151.059 210.762V184.547L128.01 181.118V209.108ZM431.003 136H381.003L381 209H429.507L430.017 136L431.017 136.007L430.5 210.007L429.5 210H380L380.003 135H431.003V136ZM558.5 100H448.007L448 172H558.502L558.648 99L559.648 99.002L559.502 172H559.729V173H559.5V173.002L558.5 173H447L447.007 99H558.5V100ZM46.8232 2.94824L165.287 76H299.002V2.68555L46.8232 2.94824ZM340.002 76H346.111L340.002 69.127V76ZM340.002 67.6221L347.449 76H374.413L340.002 4.30957V67.6221ZM340.31 2.6416L375.521 76H566.381L602.704 2.36816L340.31 2.6416ZM567.495 76H594L603 65L603.002 65.001V4.02637L567.495 76ZM645.002 2.32422V75H787.717L906.01 2.05273L645.002 2.32422Z" fill="black"/>
</svg>
