<svg width="170" height="172" viewBox="0 0 170 172" fill="none" xmlns="http://www.w3.org/2000/svg">
<path d="M59.5976 103.53C61.3424 100.219 65.1052 104.282 68.0526 103.429C74.1615 104.133 79.9081 102.185 85.7586 101.449C86.8504 102.685 85.1956 103.075 84.7929 103.957C74.922 114.602 65.4642 125.59 56.0952 136.638L56.1021 136.65C53.5975 139.591 51.1022 142.548 48.617 145.5C48.3623 145.864 48.1034 146.244 47.8459 146.644L47.772 146.526C44.9254 150.569 42.0944 154.367 39.6091 156.614C38.4312 158.384 38.8765 160.95 39.5417 163.134C40.7657 165.484 42.2735 167.924 44.8003 168.693C49.4163 171.012 53.8431 169.319 56.8869 166.141C57.7035 164.02 58.6758 161.571 59.2863 160.524C59.878 157.504 59.5214 154.489 58.042 152.095C56.8372 150.693 54.8283 149.533 52.2239 150.065L52.1095 150.069L50.9598 148.208C53.5165 147.262 56.4015 148.344 58.6049 149.336C62.5964 152.674 61.8922 158.139 60.3184 163.355L59.8277 162.56C59.8233 162.627 59.8079 162.691 59.8035 162.758C60.8866 163.409 58.1701 168.044 54.6832 170.326C50.0691 173.176 43.6839 171.684 38.9255 168.411C34.2883 165.319 31.4014 158.816 31.7252 153.435L31.9609 146.821L30.139 140.18C31.5031 139.081 33.3878 141.023 35.0551 140.77L37.9191 139C38.6891 137.111 40.0788 135.121 41.3012 134.042C42.454 132.69 43.4785 131.163 44.5822 129.766C45.7246 127.899 47.2101 126.281 48.6808 124.659L48.674 124.648C50.446 122.69 52.1948 120.734 53.2779 118.315L51.8768 117.58L45.15 118.903L43.8533 116.803C48.4578 116.018 52.9121 114.868 57.4416 113.818C59.3151 110.738 60.5412 107.101 59.5976 103.53ZM93.0084 100.04C93.0721 99.1111 93.731 98.0949 94.7296 98.6358C104.151 108.291 115.368 116.328 126.401 124.649L126.327 124.698C126.459 124.764 126.606 124.841 126.764 124.932C128.996 126.209 133.717 129.742 136.485 131.853C139.868 134.202 142.825 136.615 145.443 139.071C147.167 140.088 149.715 139.514 151.89 138.755C154.242 137.454 156.69 135.878 157.505 133.43C159.9 128.905 158.322 124.794 155.245 122.084C153.547 121.551 151.635 120.932 150.433 120.44C147.282 119.913 144.071 120.394 141.523 122.034C140.111 123.262 138.919 125.238 139.387 127.684L139.389 127.794L137.523 128.995C136.643 126.619 137.776 123.811 138.806 121.658C142.196 117.668 147.586 118.02 152.713 119.213L152.662 119.245C154.185 119.302 157.548 121.326 159.336 123.935C162.055 128.157 160.44 134.318 157.098 139.034C153.938 143.624 147.441 146.748 142.126 146.753L135.587 146.914L128.978 149.034C127.921 147.8 129.884 145.895 129.67 144.324L127.982 141.704C127.048 141.39 126.092 140.926 125.24 140.404L125.184 140.426C123.322 139.151 123.029 138.719 121.54 137.547C119.783 136.586 115.918 133.307 114.65 132.165L108.207 127.215C107.478 127.093 106.641 127.336 106.819 128.109C107.168 130.761 107.347 133.737 107.8 136.642C108.423 140.657 109.545 144.529 112.253 147.284C113.231 148.287 114.417 149.122 115.858 149.78C118.188 150.351 120.527 150.916 122.921 150.559C123.46 151.395 122.801 152.412 122.108 152.858L103.408 164.606L103.394 164.604C102.566 164.841 101.891 163.794 102.315 162.93C105.511 159.486 106.551 155.171 106.721 150.846L106.729 150.841C106.855 147.824 106.564 144.801 106.286 142.056L105.604 138.043L103.341 124.726L103.318 124.728C100.972 122.096 96.4508 123.243 93.518 122.764C92.7435 120.02 95.4109 116.525 95.0904 113.476C94.6685 108.728 94.3661 104.186 93.0084 100.04ZM40.7359 111.799C39.5319 113.245 38.3181 114.697 37.0999 116.14C37.0154 116.515 36.8415 117.256 37.3579 117.582C39.5587 117.442 41.7102 117.16 43.8383 116.801L45.136 118.901L33.5938 121.185C33.271 121.452 32.9633 121.745 32.6658 122.054L32.6726 122.065C29.9498 124.98 28.6668 129.836 29.3677 133.732C28.9648 134.613 27.7072 134.113 27.2798 133.422L15.4076 114.206C16.0093 111.601 18.9262 114.276 20.7462 113.153L23.3165 112.198L25.1945 109.983L25.1922 109.979L33.5244 100.128L40.7359 111.799ZM44.7676 78.4625C47.7057 77.6147 51.2197 80.2324 54.45 79.8373C59.4755 79.2999 64.2772 78.8892 68.7261 77.4185C69.7002 77.4614 70.7292 78.1045 70.0981 79.1277C59.3482 88.8895 50.1895 100.431 40.7442 111.793L33.5268 100.11L39.1697 93.4348C39.3438 92.6941 39.1404 91.8532 38.3158 92.0516C35.5016 92.4663 32.357 92.7154 29.2701 93.241C25.0044 93.9654 20.8577 95.1913 17.7892 97.9966C16.6716 99.0095 15.7204 100.231 14.9378 101.704C14.192 104.076 13.4509 106.458 13.6793 108.873C12.7649 109.437 11.736 108.794 11.3088 108.103L0.0972328 89.4458L0.101984 89.4326C-0.096616 88.5999 1.04641 87.8936 1.93092 88.3023C5.35858 91.4574 9.8385 92.4091 14.381 92.4809L14.3866 92.4892C17.5553 92.5462 20.7551 92.1805 23.6625 91.8348L27.9304 91.0517L42.0928 88.4506L42.0919 88.4281C45.0094 85.9923 44.0816 81.4424 44.7676 78.4625ZM33.5314 100.118L33.5244 100.128L33.5175 100.116L33.5314 100.118ZM136.463 70.4853L131.353 77.1275C131.222 77.8564 131.461 78.6765 132.247 78.4671C134.942 78.0099 137.964 77.7092 140.916 77.1385C144.996 76.3517 148.937 75.0752 151.757 72.2712C152.785 71.2585 153.641 70.0439 154.322 68.586C154.923 66.249 155.518 63.9041 155.177 61.5428C156.031 60.9729 157.056 61.5821 157.503 62.2516L169.259 80.3287L169.256 80.3427C169.489 81.1548 168.422 81.8676 167.548 81.4832C164.081 78.4539 159.71 77.6018 155.322 77.6137L155.317 77.6062C152.256 77.6078 149.186 78.0231 146.398 78.4144L142.319 79.2586L128.781 82.0639L128.784 82.0852C126.091 84.5246 127.216 88.966 126.703 91.8979C123.91 92.7818 120.387 90.2799 117.29 90.7253C112.467 91.3428 107.853 91.8313 103.633 93.3526C102.691 93.3282 101.666 92.7174 102.223 91.7035C112.108 81.9452 120.367 70.4726 128.912 59.17L136.463 70.4853ZM136.472 70.4797L136.459 70.4768L136.465 70.4685L136.472 70.4797ZM138.79 37.4689C139.134 36.598 140.372 37.0661 140.82 37.7356L153.242 56.3475C152.792 58.9101 149.842 56.3423 148.142 57.4764L145.71 58.4566L144.008 60.6612L144.01 60.6649L136.465 70.4685L128.92 59.1643C130.009 57.7258 131.108 56.2807 132.211 54.8445C132.274 54.4758 132.404 53.7465 131.889 53.4372C129.772 53.6136 127.71 53.9283 125.674 54.3188L124.317 52.2849L135.34 49.8396C135.638 49.5713 135.921 49.2786 136.193 48.9705L136.186 48.9603C138.668 46.0557 139.662 41.2731 138.79 37.4689ZM67.6501 7.51108C68.4793 7.27855 69.1477 8.32779 68.7196 9.19038C65.5051 12.6171 64.442 16.9275 64.2488 21.2509L64.2413 21.2555C64.0997 24.2718 64.3732 27.2955 64.6371 30.0419L65.2976 34.0587L67.491 47.3877L67.5144 47.3857C69.8463 50.0305 74.3726 48.907 77.3028 49.4013C78.0631 52.1504 75.3774 55.6314 75.6818 58.6824C76.0784 63.4327 76.3556 67.9766 77.6912 72.1292C77.6225 73.0577 76.9589 74.0702 75.9634 73.5243C66.593 63.8195 55.419 55.7226 44.43 47.3431L44.5052 47.2944C44.3739 47.2272 44.2271 47.1498 44.0694 47.0584C41.8442 45.7697 37.1418 42.2108 34.3845 40.0851C31.0148 37.7178 28.07 35.2892 25.4655 32.8196C23.7465 31.7937 21.1954 32.3538 19.0168 33.1019C16.6583 34.3903 14.2025 35.9526 13.3739 38.3961C10.9546 42.9084 12.5107 47.0284 15.5735 49.7544C17.268 50.2965 19.1766 50.9258 20.3755 51.4239C23.5243 51.9679 26.7379 51.5041 29.2944 49.8768C30.7134 48.657 31.9161 46.6872 31.4606 44.2392L31.459 44.1295L33.3317 42.9376C34.1992 45.3186 33.05 48.1193 32.0086 50.2671C28.5982 54.2391 23.2108 53.8594 18.0912 52.6394L18.1423 52.6066C16.621 52.5425 13.267 50.5013 11.492 47.8819C8.79519 43.6453 10.4434 37.4935 13.8103 32.7952C16.9948 28.2219 23.5075 25.1327 28.8231 25.1556L35.3626 25.0292L41.983 22.9454C43.0328 24.1844 41.0598 26.0789 41.2658 27.6509L42.9403 30.281C43.8721 30.5997 44.8251 31.0674 45.674 31.5939L45.731 31.5733C47.5868 32.8574 47.8778 33.2907 49.3604 34.4707C51.1117 35.4413 54.9595 38.7411 56.2213 39.8899L62.6379 44.8728C63.3663 44.9991 64.2045 44.7605 64.0301 43.9868C63.6954 41.3326 63.5321 38.3562 63.095 35.4486C62.493 31.4306 61.3921 27.5529 58.6986 24.7837C57.7264 23.7746 56.5439 22.9344 55.107 22.2683C52.7798 21.6847 50.4432 21.1072 48.0474 21.4523C47.5131 20.6127 48.1768 19.5995 48.8726 19.1565L67.6362 7.50836L67.6501 7.51108ZM112.522 2.07574C116.832 -0.80071 123.07 0.546033 127.826 3.66675C132.456 6.61237 135.569 12.9313 135.526 18.2087L135.63 24.6943L137.722 31.167C136.461 32.2674 134.545 30.3989 132.949 30.6771L130.274 32.4623C129.627 34.3254 128.385 36.3001 127.26 37.3798C126.215 38.7263 125.301 40.2413 124.305 41.6306C123.297 43.48 121.945 45.0929 120.607 46.7078L120.614 46.719C119.002 48.6697 117.412 50.6175 116.488 53.0072L117.878 53.7014L124.303 52.2832L125.66 54.3171C121.256 55.1695 117.015 56.3784 112.697 57.4886C111.043 60.5402 110.042 64.1247 111.132 67.6069C109.614 70.8819 105.779 66.9684 102.977 67.8583C97.0467 67.2787 91.5999 69.2915 85.991 70.1187C84.8752 68.9274 86.4514 68.5156 86.7959 67.6443C95.7879 57.0361 104.363 46.0987 112.851 35.1043L112.844 35.0941C115.113 32.1681 117.372 29.226 119.622 26.2895C119.85 25.9276 120.081 25.5508 120.31 25.1533L120.386 25.2682C122.931 21.2555 125.473 17.4834 127.759 15.2364C128.807 13.4816 128.248 10.9752 127.497 8.84772C126.198 6.56748 124.62 4.20456 122.143 3.49707C117.572 1.30815 113.385 3.04711 110.607 6.21575C109.925 8.30933 109.109 10.728 108.572 11.7637C108.153 14.7322 108.65 17.6779 110.198 19.9966C111.431 21.3478 113.426 22.4493 115.912 21.8818L116.022 21.8753L117.226 23.6773C114.806 24.6505 111.968 23.6437 109.792 22.7112C105.772 19.5131 106.178 14.1465 107.435 9.00716L107.948 9.77664C107.949 9.71132 107.961 9.64769 107.961 9.58237C106.884 8.96303 109.272 4.37467 112.522 2.07574Z" fill="black"/>
</svg>
