<svg width="170" height="166" viewBox="0 0 170 166" fill="none" xmlns="http://www.w3.org/2000/svg">
<path d="M58.6109 98.1681C60.6326 95.0184 64.034 99.3889 67.0435 98.7911C73.0697 100.016 78.9619 98.5662 84.854 98.3331C85.8361 99.6581 84.154 99.9048 83.6773 100.749C72.9317 110.511 62.5686 120.649 52.2886 130.856L52.2945 130.868C49.5474 133.584 46.8082 136.317 44.0796 139.045C43.7947 139.386 43.5043 139.742 43.2134 140.119L43.1499 139.995C39.9678 143.78 36.8223 147.321 34.1538 149.348C32.8288 151.01 33.0529 153.605 33.5288 155.838C34.5472 158.284 35.8408 160.844 38.2925 161.826C42.6932 164.532 47.2487 163.223 50.5532 160.318C51.5482 158.275 52.7265 155.918 53.4243 154.927C54.2722 151.969 54.1749 148.934 52.9058 146.422C51.8253 144.923 49.923 143.595 47.2827 143.901L47.1685 143.896L46.1822 141.943C48.8104 141.219 51.5923 142.544 53.7027 143.722C57.3939 147.389 56.2248 152.773 54.2105 157.836L53.7896 157.002C53.7795 157.068 53.7587 157.13 53.7486 157.196C54.7719 157.938 51.6689 162.323 47.9995 164.299C43.1584 166.744 36.9243 164.711 32.4634 161.043C28.1078 157.566 25.7878 150.839 26.5708 145.506L27.3716 138.936L26.1245 132.163C27.5777 131.186 29.2893 133.282 30.9722 133.172L33.9771 131.653C34.9058 129.838 36.4607 127.973 37.771 127.003C39.0352 125.754 40.1866 124.321 41.4058 123.024C42.7037 121.262 44.3223 119.776 45.9263 118.286L45.9204 118.275C47.8535 116.475 49.7632 114.676 51.0493 112.359L49.7163 111.506L42.9009 112.249L41.7886 110.046C46.4434 109.658 50.9799 108.893 55.5825 108.234C57.7127 105.326 59.2454 101.807 58.6109 98.1681ZM92.1978 97.5499C92.3407 96.6298 93.0841 95.6736 94.0327 96.298C102.594 106.724 113.082 115.691 123.363 124.926L123.285 124.968C123.41 125.045 123.55 125.135 123.7 125.238C125.814 126.702 130.216 130.626 132.793 132.966C135.962 135.596 138.702 138.253 141.1 140.924C142.731 142.085 145.32 141.731 147.551 141.16C150.006 140.065 152.579 138.705 153.601 136.336C156.375 132.033 155.154 127.801 152.32 124.838C150.674 124.162 148.822 123.381 147.667 122.788C144.572 121.993 141.332 122.198 138.653 123.614C137.14 124.716 135.784 126.584 136.042 129.061L136.034 129.17L134.072 130.207C133.398 127.764 134.768 125.064 135.978 123.007C139.696 119.322 145.037 120.134 150.043 121.761L149.99 121.788C151.502 121.975 154.679 124.28 156.238 127.032C158.586 131.472 156.449 137.471 152.716 141.884C149.175 146.187 142.435 148.744 137.138 148.294L130.61 147.895L123.843 149.442C122.896 148.122 125.015 146.391 124.936 144.808L123.478 142.053C122.575 141.66 121.662 141.117 120.858 140.524L120.8 140.54C119.054 139.111 118.798 138.655 117.416 137.36C115.748 136.252 112.177 132.655 111.011 131.408L105.015 125.926C104.299 125.742 103.445 125.912 103.556 126.697C103.677 129.37 103.601 132.35 103.803 135.283C104.081 139.337 104.867 143.29 107.33 146.267C108.218 147.351 109.329 148.283 110.708 149.063C112.98 149.831 115.263 150.594 117.678 150.443C118.143 151.322 117.401 152.279 116.671 152.664L97.0347 162.769L97.021 162.766C96.1758 162.931 95.5933 161.83 96.0894 161.005C99.5685 157.847 100.974 153.637 101.513 149.343L101.522 149.338C101.905 146.343 101.874 143.307 101.832 140.548L101.496 136.491L100.38 123.029H100.357C98.2448 120.206 93.6423 120.963 90.7613 120.234C90.2244 117.433 93.181 114.18 93.1226 111.114C93.1085 106.348 93.1958 101.796 92.1978 97.5499ZM39.1109 104.793C37.7876 106.131 36.454 107.474 35.1167 108.808C35.0005 109.174 34.7638 109.897 35.2505 110.266C37.4551 110.315 39.6229 110.218 41.7739 110.042L42.8872 112.245L31.1919 113.533C30.8474 113.773 30.5157 114.038 30.1929 114.32L30.1988 114.332C27.2366 117.003 25.5427 121.732 25.9077 125.673C25.4309 126.517 24.2207 125.911 23.854 125.186L13.6695 105.025C14.4918 102.481 17.1693 105.395 19.0786 104.432L21.7212 103.7L23.7818 101.654L23.7798 101.651L32.9243 92.548L39.1109 104.793ZM45.98 71.924C48.9798 71.3306 52.257 74.2395 55.5093 74.1222C60.5623 74.0167 65.3815 74.0183 69.94 72.9337C70.9069 73.0598 71.877 73.7886 71.1607 74.754C59.615 83.5602 49.5024 94.276 39.1197 104.788L32.9282 92.5304L39.1216 86.3624C39.3584 85.6393 39.2277 84.7841 38.3892 84.9113C35.5498 85.0837 32.3954 85.0628 29.2749 85.3224C24.9628 85.6791 20.7265 86.5457 17.4292 89.0782C16.2291 89.9918 15.1768 91.1274 14.271 92.5284C13.325 94.8279 12.3829 97.1371 12.4038 99.5626C11.4445 100.047 10.4744 99.3184 10.1079 98.5929L0.533714 79.045L0.539574 79.0323C0.41295 78.1857 1.61222 77.5798 2.45852 78.0626C5.60366 81.4994 9.98573 82.8309 14.5054 83.2911L14.5103 83.2999C17.6625 83.6278 20.8818 83.5372 23.8081 83.4415L28.1275 83.0265L42.4605 81.6466L42.4614 81.6241C45.5767 79.4469 45.0415 74.8343 45.98 71.924ZM32.9322 92.5392L32.9243 92.548L32.9185 92.5353L32.9322 92.5392ZM138.022 71.8214L132.362 78.0021C132.169 78.7171 132.337 79.5546 133.138 79.4132C135.862 79.1883 138.899 79.1472 141.889 78.8312C146.022 78.3964 150.057 77.4617 153.107 74.9093C154.218 73.9883 155.174 72.8514 155.978 71.4572C156.776 69.1801 157.57 66.8947 157.432 64.5128C158.332 64.0181 159.3 64.7128 159.689 65.4181L169.855 84.4347L169.851 84.4484C170.014 85.2774 168.889 85.8963 168.051 85.4386C164.857 82.1238 160.574 80.9008 156.202 80.5372L156.198 80.5294C153.148 80.269 150.054 80.4202 147.242 80.5714L143.106 81.0636L129.377 82.7003L129.378 82.7218C126.486 84.9218 127.227 89.4432 126.465 92.3204C123.607 92.9622 120.311 90.168 117.187 90.3468C112.329 90.5494 107.69 90.6413 103.356 91.796C102.419 91.691 101.45 90.9948 102.092 90.0323C112.775 81.1555 121.986 70.4316 131.466 59.9015L138.022 71.8214ZM138.031 71.8165L138.018 71.8126L138.025 71.8048L138.031 71.8165ZM143.165 39.1251C143.582 38.2869 144.776 38.8592 145.165 39.5646L155.949 59.171C155.281 61.6858 152.562 58.8749 150.771 59.8595L148.264 60.6281L146.379 62.6788L146.381 62.6827L138.025 71.8048L131.475 59.8966C132.684 58.5565 133.901 57.2107 135.124 55.8741C135.218 55.5122 135.41 54.7967 134.923 54.4445C132.799 54.4391 130.717 54.5762 128.656 54.7911L127.477 52.6486L138.669 51.1554C138.989 50.9135 139.296 50.6461 139.593 50.3624L139.587 50.3517C142.309 47.67 143.708 42.9901 143.165 39.1251ZM74.8491 3.19055C75.6952 3.02981 76.2714 4.13239 75.771 4.9552C72.2752 8.09429 70.8471 12.2979 70.2847 16.589L70.2769 16.5929C69.8777 19.586 69.8916 22.6221 69.9195 25.381L70.2339 29.4396L71.2788 42.9073H71.3023C73.3993 45.742 78.0052 45.0098 80.8823 45.7531C81.4047 48.5571 78.4309 51.7956 78.4732 54.8615C78.462 59.6283 78.3493 64.1791 79.3247 68.4308C79.1768 69.35 78.429 70.3021 77.4839 69.673C68.9782 59.202 58.5379 50.1788 48.3062 40.8898L48.3853 40.8478C48.2602 40.7696 48.1206 40.6798 47.9712 40.5753C45.8645 39.101 41.4839 35.1528 38.9185 32.799C35.7637 30.152 33.0375 27.4804 30.6538 24.797C29.0289 23.6278 26.4392 23.9676 24.2046 24.5265C21.7446 25.6084 19.1641 26.9549 18.1294 29.3185C15.3329 33.6073 16.5309 37.8452 19.3491 40.8234C20.9911 41.5084 22.8388 42.2987 23.9907 42.8976C27.0814 43.709 30.3229 43.5219 33.0093 42.1193C34.5275 41.0254 35.8943 39.1656 35.6499 36.6876L35.6577 36.5782L37.6255 35.5509C38.2861 37.9975 36.9015 40.6895 35.6802 42.7404C31.9424 46.406 26.6072 45.5668 21.6109 43.9132L21.6646 43.8849C20.1543 43.6909 16.9872 41.3702 15.4429 38.6085C13.1184 34.1567 15.287 28.1685 19.0435 23.7755C22.6076 19.4914 29.3607 16.9708 34.6548 17.4484L41.1812 17.882L47.9556 16.3722C48.8955 17.6965 46.7677 19.4153 46.8384 20.9991L48.2818 23.7628C49.1829 24.1601 50.0923 24.7076 50.8931 25.3048L50.9517 25.2892C52.6907 26.7274 52.9436 27.184 54.3198 28.4865C55.9817 29.6034 59.5331 33.2202 60.6919 34.4728L66.6587 39.9865C67.3736 40.1746 68.2291 40.0086 68.1216 39.2228C68.0152 36.5497 68.1071 33.5702 67.9204 30.6359C67.6644 26.5811 66.8993 22.6234 64.4527 19.6339C63.5703 18.5453 62.464 17.6071 61.0894 16.8204C58.8207 16.0399 56.542 15.2646 54.1255 15.4034C53.665 14.5212 54.413 13.5685 55.1441 13.1866L74.8355 3.18665L74.8491 3.19055ZM120.022 1.61438C124.562 -0.882777 130.661 0.992681 135.133 4.50891C139.495 7.8399 142.055 14.402 141.561 19.6564L141.11 26.1271L142.64 32.755C141.289 33.7434 139.54 31.7179 137.926 31.8585L135.109 33.4083C134.304 35.2092 132.899 37.0705 131.685 38.0499C130.528 39.3021 129.488 40.7333 128.377 42.0323C127.214 43.7887 125.73 45.28 124.258 46.7745L124.264 46.7863C122.491 48.5919 120.741 50.3965 119.616 52.6984L120.941 53.5089L127.463 52.6456L128.642 54.7882C124.181 55.2607 119.852 56.1023 115.455 56.839C113.546 59.7379 112.242 63.2236 113.03 66.7863C111.237 69.9193 107.751 65.6921 104.883 66.339C99.0242 65.2542 93.4252 66.7935 87.7661 67.1378C86.7563 65.8554 88.362 65.58 88.7798 64.7413C98.6464 54.9414 108.126 44.7778 117.523 34.5499L117.517 34.5392C120.029 31.8181 122.531 29.08 125.024 26.3468C125.282 26.0057 125.544 25.65 125.806 25.2736L125.873 25.3947C128.751 21.6144 131.607 18.0736 134.077 16.0304C135.271 14.3717 134.929 11.8266 134.362 9.6427C133.263 7.25968 131.893 4.77046 129.486 3.85364C125.119 1.28163 120.798 2.65598 117.759 5.57532C116.901 7.60286 115.881 9.94287 115.257 10.9288C114.586 13.8506 114.829 16.828 116.172 19.2706C117.285 20.7224 119.179 21.9905 121.705 21.6378L121.815 21.6407L122.86 23.5392C120.366 24.3018 117.624 23.0558 115.536 21.9406C111.805 18.4102 112.668 13.098 114.36 8.08508L114.805 8.89563C114.812 8.83063 114.829 8.76825 114.835 8.70325C113.815 7.994 116.587 3.62679 120.022 1.61438Z" fill="black"/>
</svg>
