<svg width="171" height="167" viewBox="0 0 171 167" fill="none" xmlns="http://www.w3.org/2000/svg">
<path d="M72.0453 92.9128C72.962 92.7457 74.1042 93.1326 73.8168 94.2331C66.6843 105.742 61.5481 118.591 56.0932 131.333L56.0297 131.273C55.9965 131.417 55.9558 131.578 55.9057 131.753C55.1974 134.227 52.893 139.665 51.5014 142.869C50.0237 146.729 48.3826 150.192 46.6195 153.336C46.0422 155.257 47.2043 157.585 48.4584 159.506C50.2798 161.464 52.3906 163.447 54.9604 163.634C59.9211 164.84 63.537 162.298 65.4359 158.649C65.5501 156.872 65.6961 154.865 65.8881 153.58C65.6507 150.397 64.4214 147.405 62.224 145.341C60.6971 144.274 58.4944 143.606 56.2318 144.663L56.1273 144.692L54.518 143.18C56.6153 141.742 59.6082 142.149 61.9428 142.616C66.6207 144.917 67.5603 150.225 67.6205 155.486L67.5766 155.445C67.8842 156.933 66.7192 160.692 64.6107 163.069C61.1589 166.744 54.7972 166.697 49.4262 164.621C44.2201 162.69 39.6436 157.165 38.3754 152.015L36.6664 145.718L33.0385 139.837C33.9848 138.51 36.3002 139.942 37.7738 139.347L39.9164 137.066C39.9992 136.084 40.2203 135.043 40.5248 134.089L40.4916 134.04C41.2858 131.921 41.6356 131.531 42.4193 129.799C42.9352 127.86 45.2003 123.306 46.0072 121.797L49.2787 114.334C49.2241 113.597 48.7897 112.847 48.0824 113.21C45.591 114.201 42.7458 115.108 40.0336 116.262C36.285 117.856 32.7936 119.897 30.7631 123.2C30.0209 124.395 29.4936 125.751 29.1967 127.309C29.1959 129.708 29.2026 132.113 30.1186 134.344C29.4344 135.073 28.292 134.685 27.6938 134.123L11.8481 118.897V118.883C11.4208 118.139 12.2759 117.229 13.2162 117.426C17.3178 119.675 21.7532 119.618 25.9906 118.717L25.9984 118.725C28.9565 118.104 31.8203 117.076 34.4184 116.13L38.1518 114.481L50.5395 109.005L50.5316 108.984C52.5293 106.062 50.3417 101.964 50.1098 99.0046C52.5898 97.5775 56.615 99.3018 59.4984 98.2399C64.0068 96.6611 68.3443 95.2498 72.0453 92.9128ZM80.6957 100.219C80.6128 99.3187 81.0796 98.2729 82.1088 98.6901C92.5246 107.009 104.391 113.586 116.127 120.455L106.196 128.928L99.2875 124.807C98.5781 124.765 97.8232 125.086 98.1117 125.811C98.8516 128.328 99.4796 131.174 100.357 133.924C101.567 137.723 103.229 141.333 106.219 143.705C107.3 144.57 108.554 145.251 110.02 145.736C112.315 146.045 114.619 146.347 116.831 145.755C117.471 146.504 117.004 147.551 116.416 148.052L100.516 161.297L100.501 161.295C99.7537 161.608 98.9545 160.672 99.2221 159.796C101.718 156.15 102.036 151.887 101.53 147.707L101.537 147.701C101.19 144.784 100.448 141.905 99.7602 139.292L98.4955 135.5L94.2934 122.915L94.2738 122.919C91.6453 120.627 87.5391 122.199 84.6869 122.042C83.5293 119.479 85.5162 115.839 84.7416 112.937C83.6089 108.41 82.6218 104.069 80.6957 100.219ZM125.746 125.528C126.035 125.782 126.346 126.019 126.67 126.243L126.679 126.235C129.727 128.272 134.397 128.681 137.924 127.421C138.793 127.651 138.487 128.884 137.9 129.385L121.564 143.324C119.07 143.184 121.184 140.084 119.912 138.591L118.703 136.384L116.409 135.011L116.406 135.013L106.211 128.928L116.134 120.463C117.628 121.338 119.129 122.222 120.622 123.111C120.981 123.129 121.69 123.171 121.926 122.645C121.519 120.648 120.987 118.718 120.385 116.822L122.17 115.299L125.746 125.528ZM106.211 128.928L106.203 128.936V128.924L106.211 128.928ZM100.848 80.7829C101.858 79.585 102.429 81.0423 103.298 81.2722C114.423 88.645 125.815 95.583 137.251 102.431L137.26 102.424C140.305 104.256 143.365 106.077 146.417 107.89C146.788 108.066 147.172 108.245 147.577 108.418L147.475 108.504C151.586 110.476 155.469 112.472 157.869 114.397C159.659 115.198 161.984 114.383 163.927 113.426C165.954 111.931 168.029 110.161 168.423 107.72C169.994 103.117 167.864 99.323 164.531 97.0329C162.458 96.6191 160.061 96.114 159.013 95.7194C156.137 95.6552 153.384 96.4605 151.349 98.197C150.2 99.5245 149.377 101.551 150.199 103.857L150.217 103.962L148.634 105.312C147.433 103.116 148.075 100.296 148.718 98.1169C151.313 93.9256 156.472 93.706 161.512 94.3239L160.836 94.9001C160.899 94.8936 160.96 94.8978 161.023 94.8913C161.492 93.7948 166.135 95.5531 168.693 98.3913C171.92 102.174 171.34 108.271 168.903 113.156C166.618 117.902 160.947 121.581 155.913 122.136L149.744 122.967L143.811 125.691C142.619 124.613 144.184 122.577 143.739 121.087L141.735 118.738C139.885 118.33 137.861 117.371 136.705 116.42C135.305 115.576 133.759 114.876 132.324 114.085C130.447 113.332 128.757 112.226 127.067 111.133L127.058 111.141C125.017 109.825 122.981 108.53 120.599 107.919L120.094 109.321L122.171 115.285L120.386 116.808C119.077 112.707 117.446 108.802 115.901 104.811C112.806 103.58 109.276 103.029 106.08 104.461C102.788 103.384 106.084 99.2882 104.921 96.7184C104.804 91.0005 102.269 86.0355 100.848 80.7829ZM28.4594 41.9128C29.6162 42.9988 28.0076 44.9994 28.4125 46.4841L30.3451 48.8415C32.1746 49.2708 34.1616 50.2512 35.2865 51.2106C36.6579 52.0667 38.178 52.7817 39.5854 53.5866C41.4326 54.359 43.0856 55.4791 44.7387 56.5866L44.7475 56.5798C46.7438 57.9135 48.7359 59.2256 51.0893 59.864L51.6273 58.4792L49.7152 52.5319L51.5297 51.0446C52.7269 55.1326 54.2483 59.0302 55.683 63.0114C58.73 64.2754 62.2261 64.8687 65.4418 63.4909C68.6899 64.6038 65.3057 68.6251 66.3969 71.1911C66.3663 76.8675 68.7595 81.83 70.0385 87.0622C69.0038 88.2371 68.4734 86.7835 67.6147 86.5436C56.7382 79.0765 45.5855 72.0373 34.3861 65.0866L34.3773 65.0934C31.3956 63.2334 28.3986 61.3853 25.4086 59.5446C25.0447 59.3649 24.6668 59.1836 24.269 59.0065L24.3725 58.9216C20.3335 56.9088 16.5223 54.8752 14.185 52.9323C12.4245 52.1139 10.091 52.8913 8.13419 53.8141C6.07997 55.2711 3.97126 56.9998 3.51602 59.4167C1.83594 63.9646 3.85683 67.7592 7.11368 70.0768C9.16548 70.5157 11.5389 71.049 12.5697 71.4548C15.4286 71.5569 18.1857 70.794 20.2543 69.0983C21.4309 67.7962 22.3023 65.7962 21.5443 63.4968L21.5287 63.3932L23.1371 62.0739C24.2749 64.2699 23.5661 67.0594 22.8705 69.2136C20.1823 73.3387 15.0435 73.4874 10.0463 72.8063L10.7328 72.2429C10.6709 72.2484 10.6101 72.2442 10.5482 72.2497C10.0541 73.3318 5.48062 71.5237 3.00919 68.6725C-0.104216 64.8747 0.627509 58.832 3.17715 54.0163C5.5714 49.3372 11.3075 45.7611 16.3295 45.278L22.4877 44.5368L28.4594 41.9128ZM103.437 3.17059C106.874 -0.551803 113.261 -0.565514 118.668 1.46747C123.909 3.35641 128.544 8.85987 129.857 14.0173L131.621 20.3229L135.307 26.1921C134.368 27.534 132.033 26.1192 130.558 26.7302L128.424 29.0397C128.349 30.0267 128.134 31.0739 127.835 32.0349L127.87 32.0827C127.089 34.2171 126.74 34.6129 125.966 36.3581C125.464 38.3056 123.235 42.8849 122.432 44.4177L119.2 51.9489C119.26 52.6879 119.702 53.4378 120.41 53.0661C122.903 52.047 125.753 51.1102 128.466 49.9255C132.099 48.3414 135.487 46.3381 137.525 43.1823L137.718 42.8727C138.454 41.6664 138.973 40.3 139.259 38.7331C139.242 36.3254 139.216 33.9105 138.28 31.6794C138.961 30.9418 140.11 31.3193 140.715 31.8776L156.738 47.0114L156.739 47.0261C157.173 47.7688 156.321 48.6907 155.376 48.5016C151.242 46.2836 146.789 46.3833 142.542 47.3278L142.536 47.321C139.571 47.9734 136.704 49.0299 134.103 50.0046L130.368 51.697L117.976 57.3122L117.984 57.3327C116.001 60.285 118.227 64.3781 118.483 67.3474C116.004 68.8036 111.951 67.1122 109.065 68.2057C104.551 69.8338 100.208 71.292 96.5111 73.6735C95.5922 73.85 94.4428 73.4717 94.7231 72.364C101.794 60.7423 106.851 47.7932 112.229 34.9499L112.294 35.0104C112.327 34.8657 112.366 34.7028 112.415 34.5261C113.108 32.0329 115.381 26.547 116.753 23.3181C118.206 19.4316 119.825 15.9415 121.57 12.7702C122.135 10.8356 120.952 8.50916 119.678 6.59344C117.835 4.64498 115.7 2.67377 113.12 2.51044C108.13 1.34718 104.521 3.93497 102.643 7.61688C102.542 9.40155 102.41 11.4165 102.227 12.7087C102.49 15.9022 103.746 18.8947 105.968 20.946C107.509 22.002 109.725 22.6507 111.988 21.5681L112.092 21.5388L113.72 23.0417C111.626 24.5056 108.618 24.1253 106.271 23.6784C101.558 21.413 100.574 16.0921 100.473 10.8112L100.518 10.8532C100.197 9.36299 101.338 5.57718 103.437 3.17059ZM72.4496 7.16083C73.2015 6.85938 73.973 7.80044 73.684 8.66669C71.108 12.2512 70.682 16.4769 71.0785 20.6325L71.0717 20.6384C71.3419 23.5381 72.0057 26.4046 72.6225 29.0075L73.7836 32.7888L77.6391 45.3356L77.6606 45.3307C80.2165 47.6406 84.3403 46.1369 87.1732 46.3317C88.2584 48.89 86.1895 52.4746 86.8852 55.3649C87.8957 59.873 88.7653 64.1957 90.5824 68.0427C90.6417 68.9377 90.1501 69.9687 89.1371 69.5407C78.9905 61.1441 67.3562 54.4577 55.8588 47.4831L65.9555 39.2067L72.7211 43.3893C73.4254 43.4408 74.1843 43.1333 73.9164 42.4099C73.245 39.9018 72.692 37.0687 71.89 34.3278C70.7837 30.5401 69.2248 26.9348 66.3109 24.5407C65.2578 23.6673 64.0285 22.9753 62.5824 22.4743C60.3073 22.137 58.0246 21.8062 55.809 22.364C55.192 21.6113 55.683 20.5796 56.2807 20.0895L72.4359 7.15887L72.4496 7.16083ZM51.0395 24.7126C53.5163 24.8847 51.3329 27.9343 52.5609 29.4323L53.7065 31.6384L55.9535 33.0319L55.9555 33.03L65.9398 39.2057L55.8529 47.4753C54.3893 46.5858 52.9191 45.6887 51.4565 44.7858C51.1004 44.7629 50.3958 44.7125 50.1469 45.2311C50.5005 47.2191 50.9816 49.1411 51.5316 51.0309L49.7162 52.5182L46.4223 42.3171C46.141 42.0614 45.8385 41.8231 45.5219 41.5964L45.5131 41.6032C42.5334 39.5401 37.8986 39.0726 34.3578 40.2761C33.4993 40.0361 33.8356 38.817 34.433 38.3268L51.0395 24.7126ZM65.9486 39.2116L65.9398 39.2057L65.9496 39.1989L65.9486 39.2116Z" fill="black"/>
</svg>
